<svg width="24" height="24" viewBox="0 0 24 24" fill="none" xmlns="http://www.w3.org/2000/svg">
<path d="M2.5 12C2.5 7.52166 2.5 5.28249 3.89124 3.89124C5.28249 2.5 7.52166 2.5 12 2.5C16.4783 2.5 18.7175 2.5 20.1088 3.89124C21.5 5.28249 21.5 7.52166 21.5 12C21.5 16.4783 21.5 18.7175 20.1088 20.1088C18.7175 21.5 16.4783 21.5 12 21.5C7.52166 21.5 5.28249 21.5 3.89124 20.1088C2.5 18.7175 2.5 16.4783 2.5 12Z" stroke="#177245" stroke-width="1.5"/>
<path opacity="0.4" d="M9.85714 10H14.1429C15.4897 10 16.1632 10 16.5816 9.70711C17 9.41421 17 8.94281 17 8C17 7.05719 17 6.58579 16.5816 6.29289C16.1632 6 15.4897 6 14.1429 6H9.85714C8.51027 6 7.83684 6 7.41842 6.29289C7 6.58579 7 7.05719 7 8C7 8.94281 7 9.41421 7.41842 9.70711C7.83684 10 8.51027 10 9.85714 10Z" stroke="#177245" stroke-width="1.5"/>
<path opacity="0.4" d="M11 18H17M7 18H8" stroke="#177245" stroke-width="1.5" stroke-linecap="round" stroke-linejoin="round"/>
<path opacity="0.4" d="M11 14H17M7 14H8" stroke="#177245" stroke-width="1.5" stroke-linecap="round" stroke-linejoin="round"/>
</svg>
