<svg width="24" height="24" viewBox="0 0 24 24" fill="none" xmlns="http://www.w3.org/2000/svg">
<g opacity="0.4">
<circle cx="5.875" cy="16.125" r="1.875" stroke="#A5BE00" stroke-width="1.2"/>
<circle cx="13" cy="15" r="1.5" stroke="#A5BE00" stroke-width="1.2"/>
<path d="M7.75 16.125L7.75 10.25C7.75 9.35384 7.75 8.90576 7.98184 8.6276C8.21367 8.34945 8.72241 8.25628 9.73988 8.06993C11.6216 7.72529 13.0309 6.95929 13.868 6.42522C14.1508 6.24475 14.2923 6.15452 14.3961 6.21145C14.5 6.26839 14.5 6.4332 14.5 6.76283V14.9444" stroke="#A5BE00" stroke-width="1.2" stroke-linecap="round" stroke-linejoin="round"/>
<path d="M7.75 11.25C11.35 11.25 13.75 9.5 14.5 9" stroke="#A5BE00" stroke-width="1.2" stroke-linecap="round" stroke-linejoin="round"/>
</g>
<path d="M2 11C2 7.70017 2 6.05025 3.02513 5.02513C4.05025 4 5.70017 4 9 4H10C13.2998 4 14.9497 4 15.9749 5.02513C17 6.05025 17 7.70017 17 11V13C17 16.2998 17 17.9497 15.9749 18.9749C14.9497 20 13.2998 20 10 20H9C5.70017 20 4.05025 20 3.02513 18.9749C2 17.9497 2 16.2998 2 13V11Z" stroke="#A5BE00" stroke-width="1.5"/>
<path opacity="0.4" d="M17 8.90585L17.1259 8.80196C19.2417 7.05623 20.2996 6.18336 21.1498 6.60482C22 7.02628 22 8.42355 22 11.2181V12.7819C22 15.5765 22 16.9737 21.1498 17.3952C20.2996 17.8166 19.2417 16.9438 17.1259 15.198L17 15.0941" stroke="#A5BE00" stroke-width="1.5" stroke-linecap="round"/>
</svg>
