<svg width="24" height="24" viewBox="0 0 24 24" fill="none" xmlns="http://www.w3.org/2000/svg">
<path d="M7.02231 16.9777C7.07674 18.6978 7.26397 19.7529 7.90796 20.5376C8.07418 20.7401 8.25989 20.9258 8.46243 21.092C9.56878 22 11.2125 22 14.5 22C17.7875 22 19.4312 22 20.5376 21.092C20.7401 20.9258 20.9258 20.7401 21.092 20.5376C22 19.4312 22 17.7875 22 14.5C22 11.2125 22 9.56878 21.092 8.46243C20.9258 8.25989 20.7401 8.07418 20.5376 7.90796C19.7563 7.26676 18.707 7.07837 17 7.02303M7.02231 16.9777C5.30217 16.9233 4.24713 16.736 3.46243 16.092C3.25989 15.9258 3.07418 15.7401 2.90796 15.5376C2 14.4312 2 12.7875 2 9.5C2 6.21252 2 4.56878 2.90796 3.46243C3.07418 3.25989 3.25989 3.07418 3.46243 2.90796C4.56878 2 6.21252 2 9.5 2C12.7875 2 14.4312 2 15.5376 2.90796C15.7401 3.07418 15.9258 3.25989 16.092 3.46243C16.736 4.24713 16.9233 5.30217 16.9777 7.02231C16.9777 7.02231 16.9777 7.02231 17 7.02303M7.02231 16.9777L17 7.02303" stroke="#643D40" stroke-width="1.5"/>
<path opacity="0.4" d="M18.7468 13H17.4339C17.2598 13 17.0928 13.0692 16.9697 13.1923C16.8466 13.3154 16.7774 13.4824 16.7774 13.6565C16.7774 13.8306 16.8466 13.9976 16.9697 14.1207C17.0928 14.2438 17.2598 14.3129 17.4339 14.3129V15.6259H16.6566C16.7344 15.4156 16.7752 15.1936 16.7774 14.9694C16.7774 14.5359 16.6343 14.1145 16.3704 13.7706C16.1065 13.4266 15.7364 13.1794 15.3177 13.0672C14.899 12.955 14.4549 12.9841 14.0544 13.15C13.6538 13.3159 13.3192 13.6093 13.1025 13.9847C13.055 14.0594 13.0231 14.143 13.0087 14.2303C12.9943 14.3177 12.9978 14.4071 13.0188 14.4931C13.0399 14.5791 13.0782 14.6599 13.1313 14.7307C13.1844 14.8016 13.2513 14.8609 13.3279 14.9052C13.4046 14.9495 13.4894 14.9779 13.5773 14.9886C13.6652 14.9992 13.7543 14.992 13.8394 14.9674C13.9244 14.9427 14.0036 14.9011 14.0721 14.845C14.1406 14.789 14.1971 14.7196 14.2382 14.6412C14.2957 14.5414 14.3786 14.4586 14.4783 14.401C14.578 14.3434 14.6912 14.313 14.8064 14.3129C14.9215 14.3129 15.0347 14.3431 15.1345 14.4007C15.2343 14.4582 15.3172 14.5409 15.3749 14.6406C15.4326 14.7403 15.463 14.8534 15.4631 14.9686C15.4633 15.0838 15.4331 15.197 15.3757 15.2968C15.3182 15.3966 15.2355 15.4796 15.1359 15.5374C15.0362 15.5951 14.9232 15.6257 14.808 15.6259C14.6339 15.6259 14.4669 15.695 14.3438 15.8182C14.2207 15.9413 14.1515 16.1082 14.1515 16.2824C14.1515 16.4565 14.2207 16.6234 14.3438 16.7465C14.4669 16.8697 14.6339 16.9388 14.808 16.9388C14.9232 16.9389 15.0363 16.9694 15.1361 17.0271C15.2358 17.0847 15.3186 17.1677 15.3761 17.2675C15.4336 17.3673 15.4639 17.4805 15.4638 17.5957C15.4637 17.7109 15.4333 17.8241 15.3757 17.9238C15.318 18.0236 15.2352 18.1064 15.1354 18.1639C15.0356 18.2215 14.9224 18.2518 14.8072 18.2518C14.692 18.2517 14.5788 18.2214 14.479 18.1638C14.3793 18.1062 14.2964 18.0233 14.2388 17.9235C14.1978 17.8451 14.1413 17.7757 14.0728 17.7197C14.0042 17.6636 13.9251 17.622 13.84 17.5973C13.755 17.5727 13.6659 17.5655 13.578 17.5761C13.4901 17.5868 13.4053 17.6152 13.3286 17.6595C13.2519 17.7038 13.185 17.7631 13.1319 17.834C13.0788 17.9048 13.0406 17.9856 13.0195 18.0716C12.9984 18.1576 12.995 18.247 13.0094 18.3344C13.0237 18.4217 13.0556 18.5053 13.1031 18.58C13.32 18.9551 13.6546 19.2482 14.055 19.4139C14.4554 19.5795 14.8992 19.6085 15.3178 19.4964C15.7363 19.3842 16.1062 19.1371 16.3701 18.7934C16.634 18.4497 16.7771 18.0286 16.7774 17.5953C16.7752 17.3711 16.7344 17.1491 16.6566 16.9388H17.4339V18.9082C17.4339 19.0823 17.503 19.2493 17.6261 19.3724C17.7492 19.4955 17.9162 19.5647 18.0903 19.5647C18.2644 19.5647 18.4314 19.4955 18.5545 19.3724C18.6776 19.2493 18.7468 19.0823 18.7468 18.9082V14.3129C18.9209 14.3129 19.0879 14.2438 19.211 14.1207C19.3341 13.9976 19.4033 13.8306 19.4033 13.6565C19.4033 13.4824 19.3341 13.3154 19.211 13.1923C19.0879 13.0692 18.9209 13 18.7468 13Z" fill="#643D40"/>
<path opacity="0.4" d="M6 7.1875L6 11C6 11.1658 6.06585 11.3247 6.18306 11.4419C6.30027 11.5592 6.45924 11.625 6.625 11.625C6.79076 11.625 6.94973 11.5592 7.06694 11.4419C7.18415 11.3247 7.25 11.1658 7.25 11V9.75H9.125V11C9.125 11.1658 9.19085 11.3247 9.30806 11.4419C9.42527 11.5592 9.58424 11.625 9.75 11.625C9.91576 11.625 10.0747 11.5592 10.1919 11.4419C10.3092 11.3247 10.375 11.1658 10.375 11V7.1875C10.375 6.60734 10.1445 6.05094 9.7343 5.6407C9.32406 5.23047 8.76766 5 8.1875 5C7.60734 5 7.05094 5.23047 6.6407 5.6407C6.23047 6.05094 6 6.60734 6 7.1875ZM8.1875 6.25C8.43606 6.25027 8.67436 6.34913 8.85011 6.52489C9.02587 6.70064 9.12473 6.93894 9.125 7.1875V8.5H7.25V7.1875C7.25027 6.93894 7.34913 6.70064 7.52489 6.52489C7.70064 6.34913 7.93894 6.25027 8.1875 6.25Z" fill="#643D40"/>
</svg>
