<svg width="20" height="18" viewBox="0 0 20 18" fill="none" xmlns="http://www.w3.org/2000/svg">
<path d="M10.6851 1.99836L10 2.70089L9.31496 1.99837C7.18404 -0.18692 3.72912 -0.186922 1.5982 1.99837C-0.4755 4.12497 -0.539217 7.55218 1.45393 9.7583L7.18026 16.0965C8.70154 17.7803 11.2984 17.7803 12.8197 16.0965L18.5461 9.75827C20.5392 7.55215 20.4755 4.12495 18.4018 1.99835C16.2709 -0.186935 12.816 -0.186933 10.6851 1.99836Z" fill="#FA2A2A"/>
<path opacity="0.4" fill-rule="evenodd" clip-rule="evenodd" d="M14.25 3.5C14.25 3.08579 14.5858 2.75 15 2.75C16.5188 2.75 17.75 3.98122 17.75 5.5C17.75 5.91421 17.4142 6.25 17 6.25C16.5858 6.25 16.25 5.91421 16.25 5.5C16.25 4.80964 15.6904 4.25 15 4.25C14.5858 4.25 14.25 3.91421 14.25 3.5Z" fill="white"/>
</svg>
