  <svg width="124" height="40" viewBox="0 0 124 40" fill="none" xmlns="http://www.w3.org/2000/svg">
<path d="M15.6443 0.940951C17.8173 -0.31365 20.4946 -0.313651 22.6677 0.94095L33.9058 7.42927C36.0788 8.68388 37.4174 11.0025 37.4174 13.5117V26.4883C37.4174 28.9975 36.0788 31.3161 33.9058 32.5707L22.6677 39.059C20.4946 40.3136 17.8173 40.3137 15.6443 39.0591L4.40621 32.5707C2.23318 31.3161 0.894531 28.9975 0.894531 26.4883V13.5117C0.894531 11.0025 2.23317 8.68388 4.40621 7.42928L15.6443 0.940951Z" fill="url(#paint0_linear_41_19908)"/>
<path d="M15.6443 0.940951C17.8173 -0.31365 20.4946 -0.313651 22.6677 0.94095L33.9058 7.42927C36.0788 8.68388 37.4174 11.0025 37.4174 13.5117V26.4883C37.4174 28.9975 36.0788 31.3161 33.9058 32.5707L22.6677 39.059C20.4946 40.3136 17.8173 40.3137 15.6443 39.0591L4.40621 32.5707C2.23318 31.3161 0.894531 28.9975 0.894531 26.4883V13.5117C0.894531 11.0025 2.23317 8.68388 4.40621 7.42928L15.6443 0.940951Z" fill="#FBA83B"/>
<path d="M23.0178 16.8212C23.3086 16.8753 23.6038 16.9027 23.8996 16.9029C25.5732 16.8111 27.1631 16.1417 28.3983 15.0087C28.4475 14.9705 28.4873 14.9216 28.5146 14.8657C28.542 14.8098 28.5562 14.7484 28.5562 14.6862C28.5562 14.624 28.542 14.5625 28.5146 14.5066C28.4873 14.4507 28.4475 14.4018 28.3983 14.3637L26.7654 13.139C26.6819 13.0772 26.578 13.0496 26.4748 13.0617C26.3717 13.0738 26.277 13.1248 26.2102 13.2043C25.8296 13.6412 25.3656 13.9976 24.8455 14.2528C24.3253 14.508 23.7595 14.6567 23.1811 14.6903C22.589 14.6188 22.0212 14.4124 21.5215 14.0868C21.0218 13.7612 20.6035 13.3252 20.299 12.8124C20.2577 12.756 20.2027 12.7111 20.1391 12.6821C20.0755 12.6531 20.0056 12.6408 19.936 12.6465C19.8663 12.6523 19.7993 12.6758 19.7414 12.7148C19.6834 12.7539 19.6364 12.8072 19.605 12.8696L19.1967 13.686C19.1653 13.7451 19.1488 13.811 19.1488 13.8779C19.1488 13.9448 19.1653 14.0107 19.1967 14.0698C19.6178 14.7602 20.1728 15.3594 20.829 15.8319C21.4853 16.3045 22.2295 16.6409 23.0178 16.8212Z" fill="white"/>
<path d="M22.9525 13.7513C22.9904 13.7896 23.0356 13.82 23.0853 13.8407C23.1351 13.8614 23.1884 13.8721 23.2423 13.8721C23.2962 13.8721 23.3496 13.8614 23.3993 13.8407C23.4491 13.82 23.4942 13.7896 23.5322 13.7513L25.1651 12.1184C25.2034 12.0805 25.2337 12.0353 25.2545 11.9856C25.2752 11.9358 25.2858 11.8825 25.2858 11.8286C25.2858 11.7747 25.2752 11.7213 25.2545 11.6716C25.2337 11.6218 25.2034 11.5767 25.1651 11.5387L23.5322 9.90579C23.4942 9.86753 23.4491 9.83716 23.3993 9.81643C23.3496 9.7957 23.2962 9.78504 23.2423 9.78504C23.1884 9.78504 23.1351 9.7957 23.0853 9.81643C23.0356 9.83716 22.9904 9.86753 22.9525 9.90579L21.3195 11.5387C21.2813 11.5767 21.2509 11.6218 21.2302 11.6716C21.2095 11.7213 21.1988 11.7747 21.1988 11.8286C21.1988 11.8825 21.2095 11.9358 21.2302 11.9856C21.2509 12.0353 21.2813 12.0805 21.3195 12.1184L22.9525 13.7513ZM29.3617 21.7854V21.4261C29.3617 18.8297 27.0838 17.4336 24.9446 17.4336C24.0542 17.4323 23.18 17.6713 22.4141 18.1254C21.6482 18.5794 21.019 19.2318 20.5929 20.0136C19.9724 20.9771 18.3803 21.1077 17.9394 21.124L17.7598 21.0097C18.4495 20.5057 18.9222 19.7587 19.0824 18.9196C19.1758 18.3831 19.1352 17.8318 18.9643 17.3148C18.7934 16.7978 18.4974 16.3309 18.1027 15.9558C15.0981 12.9512 10.2238 16.1681 10.0197 16.3069C9.93406 16.3638 9.87305 16.4508 9.84883 16.5507C9.82462 16.6506 9.83897 16.756 9.88904 16.8457L11.2607 19.2951C11.2901 19.3483 11.3311 19.3942 11.3805 19.4295C11.4299 19.4648 11.4866 19.4886 11.5465 19.4993C11.6054 19.5103 11.6661 19.508 11.7241 19.4925C11.782 19.4769 11.8357 19.4486 11.8812 19.4094C12.5344 18.8706 14.4612 17.5071 15.5716 17.6785C15.688 17.6939 15.7993 17.7357 15.897 17.8008C15.9946 17.8659 16.0761 17.9526 16.135 18.0541C16.212 18.1503 16.2624 18.2651 16.281 18.3869C16.2997 18.5087 16.2859 18.6333 16.2411 18.7481C15.9717 19.4258 14.5674 19.9973 13.7428 20.2014C13.6878 20.2152 13.6362 20.2404 13.5915 20.2752C13.5468 20.3101 13.5098 20.3538 13.4829 20.4038C13.456 20.4537 13.4398 20.5087 13.4354 20.5652C13.4309 20.6217 13.4383 20.6786 13.457 20.7321L14.2735 23.1815C14.3068 23.2737 14.3721 23.3508 14.4575 23.3987C14.543 23.4467 14.6428 23.4623 14.7388 23.4428C15.2195 23.3015 15.7294 23.2921 16.2149 23.4156C16.7004 23.5392 17.1438 23.7911 17.4985 24.1449C17.6544 24.323 17.7606 24.539 17.8065 24.7712C17.8524 25.0034 17.8362 25.2436 17.7598 25.4676C17.474 26.2106 16.3718 26.6188 14.649 26.6188C10.5667 26.6188 9.75024 22.3569 9.70942 22.1691C9.68971 22.069 9.63393 21.9796 9.55265 21.9178C9.47137 21.8561 9.37027 21.8264 9.26852 21.8343C9.16601 21.8426 9.07038 21.8892 9.00075 21.9649C8.93112 22.0406 8.89262 22.1397 8.89295 22.2426C8.9501 29.6234 14.0367 30.2031 15.588 30.2031C16.2298 30.2312 16.8705 30.1272 17.4705 29.8977C18.0705 29.6682 18.6171 29.318 19.0763 28.8687C19.5355 28.4194 19.8976 27.8807 20.1402 27.2859C20.3828 26.691 20.5008 26.0527 20.4867 25.4105C20.4913 24.6945 20.3292 23.9873 20.0132 23.3448C20.8846 23.2579 21.7187 22.9467 22.4341 22.4416C23.1495 21.9365 23.7219 21.2547 24.0955 20.4627C24.2044 20.2333 24.3507 20.0236 24.5282 19.8422C25.2386 19.8422 26.7899 20.3402 26.7899 21.8262C26.7899 24.0551 26.2428 25.0022 24.9691 25.0022C24.428 25.0013 23.8947 24.873 23.4124 24.6276C22.9302 24.3822 22.5124 24.0266 22.1932 23.5897C22.1484 23.5211 22.0838 23.4679 22.0078 23.4373C21.9319 23.4066 21.8484 23.4 21.7686 23.4183C21.689 23.4348 21.6162 23.4748 21.5595 23.533C21.5028 23.5911 21.4647 23.6649 21.4502 23.7449C21.3661 24.3084 21.3949 24.8831 21.5351 25.4354C21.6753 25.9876 21.924 26.5065 22.2666 26.9617C22.6703 27.3942 23.1661 27.7303 23.7173 27.9451C24.2685 28.1599 24.861 28.248 25.4509 28.2028C25.9294 28.224 26.4072 28.1474 26.855 27.9775C27.3029 27.8076 27.7113 27.5481 28.0554 27.2148C29.3617 25.8024 29.3617 23.2876 29.3617 21.7854Z" fill="white"/>
<path d="M53.9917 15.5566C53.3295 15.5566 52.7308 15.4432 52.1955 15.2164C51.6693 14.9896 51.252 14.6631 50.9436 14.2367C50.6352 13.8103 50.4764 13.3068 50.4673 12.7262H52.5085C52.5357 13.1163 52.6718 13.4248 52.9167 13.6515C53.1707 13.8783 53.5155 13.9917 53.9509 13.9917C54.3954 13.9917 54.7447 13.8874 54.9987 13.6788C55.2527 13.461 55.3797 13.1798 55.3797 12.8351C55.3797 12.5539 55.2935 12.3225 55.1212 12.1411C54.9488 11.9597 54.7311 11.819 54.468 11.7192C54.214 11.6104 53.8602 11.4925 53.4066 11.3654C52.7897 11.184 52.2862 11.0071 51.8961 10.8347C51.5151 10.6533 51.184 10.3857 50.9028 10.0319C50.6306 9.66901 50.4945 9.18821 50.4945 8.58947C50.4945 8.02701 50.6352 7.53713 50.9164 7.11983C51.1976 6.70253 51.5922 6.38501 52.1003 6.16729C52.6083 5.94049 53.1889 5.82709 53.8421 5.82709C54.8218 5.82709 55.6156 6.0675 56.2234 6.54831C56.8403 7.02004 57.1805 7.68228 57.244 8.53504H55.1484C55.1303 8.20845 54.9896 7.94083 54.7266 7.73218C54.4725 7.51446 54.1323 7.40559 53.706 7.40559C53.334 7.40559 53.0347 7.50085 52.8079 7.69136C52.5901 7.88186 52.4813 8.15856 52.4813 8.52143C52.4813 8.77544 52.5629 8.98863 52.7262 9.16099C52.8986 9.32428 53.1072 9.46036 53.3522 9.56922C53.6062 9.66901 53.96 9.78695 54.4136 9.92303C55.0305 10.1045 55.5339 10.2859 55.924 10.4673C56.3141 10.6488 56.6498 10.9209 56.931 11.2838C57.2122 11.6467 57.3529 12.1229 57.3529 12.7126C57.3529 13.2206 57.2213 13.6924 56.9582 14.1278C56.6951 14.5633 56.3096 14.9125 55.8016 15.1756C55.2935 15.4296 54.6903 15.5566 53.9917 15.5566Z" fill="#23262F"/>
<path d="M58.5146 11.6648C58.5146 10.9028 58.6643 10.2269 58.9637 9.63726C59.2721 9.0476 59.6849 8.594 60.202 8.27649C60.7281 7.95897 61.3133 7.80022 61.9574 7.80022C62.5198 7.80022 63.0097 7.91362 63.427 8.14041C63.8534 8.36721 64.1936 8.65297 64.4476 8.9977V7.92269H66.3663V15.4614H64.4476V14.3592C64.2026 14.713 63.8625 15.0078 63.427 15.2437C63.0006 15.4705 62.5062 15.5838 61.9438 15.5838C61.3087 15.5838 60.7281 15.4206 60.202 15.094C59.6849 14.7674 59.2721 14.3093 58.9637 13.7196C58.6643 13.1208 58.5146 12.4359 58.5146 11.6648ZM64.4476 11.692C64.4476 11.2294 64.3569 10.8347 64.1754 10.5082C63.994 10.1725 63.7491 9.91849 63.4406 9.74612C63.1322 9.56469 62.801 9.47397 62.4472 9.47397C62.0934 9.47397 61.7669 9.56015 61.4675 9.73252C61.1681 9.90488 60.9232 10.1589 60.7327 10.4946C60.5512 10.8211 60.4605 11.2112 60.4605 11.6648C60.4605 12.1184 60.5512 12.5176 60.7327 12.8623C60.9232 13.198 61.1681 13.4565 61.4675 13.6379C61.7759 13.8194 62.1025 13.9101 62.4472 13.9101C62.801 13.9101 63.1322 13.8239 63.4406 13.6515C63.7491 13.4701 63.994 13.2161 64.1754 12.8895C64.3569 12.5539 64.4476 12.1547 64.4476 11.692Z" fill="#23262F"/>
<path d="M72.4045 7.81383C73.3026 7.81383 74.0284 8.09959 74.5817 8.67111C75.1351 9.23357 75.4118 10.0228 75.4118 11.0389V15.4614H73.5067V11.2974C73.5067 10.6987 73.357 10.2405 73.0577 9.92303C72.7583 9.59644 72.3501 9.43315 71.833 9.43315C71.3068 9.43315 70.8895 9.59644 70.5811 9.92303C70.2817 10.2405 70.132 10.6987 70.132 11.2974V15.4614H68.2269V7.92269H70.132V8.86162C70.386 8.53504 70.7081 8.28102 71.0982 8.09959C71.4973 7.90908 71.9328 7.81383 72.4045 7.81383Z" fill="#23262F"/>
<path d="M76.7336 11.6648C76.7336 10.9028 76.8833 10.2269 77.1826 9.63726C77.4911 9.0476 77.9038 8.594 78.4209 8.27649C78.9471 7.95897 79.5322 7.80022 80.1763 7.80022C80.7388 7.80022 81.2287 7.91362 81.646 8.14041C82.0723 8.36721 82.4125 8.65297 82.6665 8.9977V7.92269H84.5852V15.4614H82.6665V14.3592C82.4216 14.713 82.0814 15.0078 81.646 15.2437C81.2196 15.4705 80.7252 15.5838 80.1627 15.5838C79.5277 15.5838 78.9471 15.4206 78.4209 15.094C77.9038 14.7674 77.4911 14.3093 77.1826 13.7196C76.8833 13.1208 76.7336 12.4359 76.7336 11.6648ZM82.6665 11.692C82.6665 11.2294 82.5758 10.8347 82.3944 10.5082C82.213 10.1725 81.968 9.91849 81.6596 9.74612C81.3511 9.56469 81.02 9.47397 80.6662 9.47397C80.3124 9.47397 79.9858 9.56015 79.6864 9.73252C79.3871 9.90488 79.1421 10.1589 78.9516 10.4946C78.7702 10.8211 78.6795 11.2112 78.6795 11.6648C78.6795 12.1184 78.7702 12.5176 78.9516 12.8623C79.1421 13.198 79.3871 13.4565 79.6864 13.6379C79.9949 13.8194 80.3215 13.9101 80.6662 13.9101C81.02 13.9101 81.3511 13.8239 81.6596 13.6515C81.968 13.4701 82.213 13.2161 82.3944 12.8895C82.5758 12.5539 82.6665 12.1547 82.6665 11.692Z" fill="#23262F"/>
<path d="M88.6639 9.48758V13.1345C88.6639 13.3885 88.7229 13.5744 88.8409 13.6924C88.9679 13.8012 89.1765 13.8557 89.4668 13.8557H90.3513V15.4614H89.1538C87.5481 15.4614 86.7453 14.6812 86.7453 13.1208V9.48758H85.8471V7.92269H86.7453V6.05843H88.6639V7.92269H90.3513V9.48758H88.6639Z" fill="#23262F"/>
<path d="M91.2317 11.6648C91.2317 10.9028 91.3813 10.2269 91.6807 9.63726C91.9892 9.0476 92.4019 8.594 92.919 8.27649C93.4452 7.95897 94.0303 7.80022 94.6744 7.80022C95.2369 7.80022 95.7268 7.91362 96.1441 8.14041C96.5704 8.36721 96.9106 8.65297 97.1646 8.9977V7.92269H99.0833V15.4614H97.1646V14.3592C96.9197 14.713 96.5795 15.0078 96.1441 15.2437C95.7177 15.4705 95.2233 15.5838 94.6608 15.5838C94.0258 15.5838 93.4452 15.4206 92.919 15.094C92.4019 14.7674 91.9892 14.3093 91.6807 13.7196C91.3813 13.1208 91.2317 12.4359 91.2317 11.6648ZM97.1646 11.692C97.1646 11.2294 97.0739 10.8347 96.8925 10.5082C96.7111 10.1725 96.4661 9.91849 96.1577 9.74612C95.8492 9.56469 95.5181 9.47397 95.1643 9.47397C94.8105 9.47397 94.4839 9.56015 94.1845 9.73252C93.8852 9.90488 93.6402 10.1589 93.4497 10.4946C93.2683 10.8211 93.1776 11.2112 93.1776 11.6648C93.1776 12.1184 93.2683 12.5176 93.4497 12.8623C93.6402 13.198 93.8852 13.4565 94.1845 13.6379C94.493 13.8194 94.8196 13.9101 95.1643 13.9101C95.5181 13.9101 95.8492 13.8239 96.1577 13.6515C96.4661 13.4701 96.7111 13.2161 96.8925 12.8895C97.0739 12.5539 97.1646 12.1547 97.1646 11.692Z" fill="#23262F"/>
<path d="M105.122 7.81383C106.02 7.81383 106.745 8.09959 107.299 8.67111C107.852 9.23357 108.129 10.0228 108.129 11.0389V15.4614H106.224V11.2974C106.224 10.6987 106.074 10.2405 105.775 9.92303C105.475 9.59644 105.067 9.43315 104.55 9.43315C104.024 9.43315 103.607 9.59644 103.298 9.92303C102.999 10.2405 102.849 10.6987 102.849 11.2974V15.4614H100.944V7.92269H102.849V8.86162C103.103 8.53504 103.425 8.28102 103.815 8.09959C104.214 7.90908 104.65 7.81383 105.122 7.81383Z" fill="#23262F"/>
<path d="M54.0326 24.1068C55.0305 24.1068 55.9059 24.3019 56.6589 24.692C57.4209 25.0821 58.006 25.64 58.4142 26.3657C58.8316 27.0824 59.0402 27.917 59.0402 28.8695C59.0402 29.8221 58.8316 30.6567 58.4142 31.3734C58.006 32.081 57.4209 32.6298 56.6589 33.0199C55.9059 33.41 55.0305 33.605 54.0326 33.605H50.7123V24.1068H54.0326ZM53.9645 31.9857C54.9624 31.9857 55.7335 31.7136 56.2778 31.1693C56.8221 30.6249 57.0943 29.8584 57.0943 28.8695C57.0943 27.8807 56.8221 27.1096 56.2778 26.5562C55.7335 25.9938 54.9624 25.7125 53.9645 25.7125H52.6174V31.9857H53.9645Z" fill="#23262F"/>
<path d="M64.7119 25.9575C65.2834 25.9575 65.7914 26.0845 66.2359 26.3385C66.6805 26.5834 67.0252 26.9508 67.2701 27.4407C67.5241 27.9215 67.6511 28.5021 67.6511 29.1825V33.605H65.7461V29.4411C65.7461 28.8423 65.5964 28.3842 65.297 28.0667C64.9976 27.7401 64.5894 27.5768 64.0723 27.5768C63.5461 27.5768 63.1288 27.7401 62.8204 28.0667C62.521 28.3842 62.3713 28.8423 62.3713 29.4411V33.605H60.4663V23.5353H62.3713V27.0053C62.6163 26.6787 62.9429 26.4247 63.3511 26.2432C63.7593 26.0527 64.2129 25.9575 64.7119 25.9575Z" fill="#23262F"/>
<path d="M68.9729 29.8085C68.9729 29.0464 69.1226 28.3706 69.422 27.7809C69.7304 27.1913 70.1432 26.7377 70.6603 26.4201C71.1864 26.1026 71.7716 25.9439 72.4157 25.9439C72.9781 25.9439 73.468 26.0573 73.8853 26.2841C74.3117 26.5109 74.6519 26.7966 74.9059 27.1414V26.0663H76.8246V33.605H74.9059V32.5028C74.6609 32.8566 74.3207 33.1514 73.8853 33.3873C73.4589 33.6141 72.9645 33.7275 72.4021 33.7275C71.767 33.7275 71.1864 33.5642 70.6603 33.2376C70.1432 32.911 69.7304 32.4529 69.422 31.8632C69.1226 31.2645 68.9729 30.5796 68.9729 29.8085ZM74.9059 29.8357C74.9059 29.373 74.8152 28.9784 74.6337 28.6518C74.4523 28.3162 74.2074 28.0621 73.8989 27.8898C73.5905 27.7083 73.2593 27.6176 72.9055 27.6176C72.5517 27.6176 72.2252 27.7038 71.9258 27.8762C71.6264 28.0485 71.3815 28.3026 71.191 28.6382C71.0095 28.9648 70.9188 29.3549 70.9188 29.8085C70.9188 30.2621 71.0095 30.6612 71.191 31.006C71.3815 31.3416 71.6264 31.6002 71.9258 31.7816C72.2342 31.963 72.5608 32.0538 72.9055 32.0538C73.2593 32.0538 73.5905 31.9676 73.8989 31.7952C74.2074 31.6138 74.4523 31.3598 74.6337 31.0332C74.8152 30.6975 74.9059 30.2984 74.9059 29.8357Z" fill="#23262F"/>
<path d="M80.5903 27.2366C80.8352 26.8375 81.1528 26.5245 81.5428 26.2977C81.942 26.0709 82.3956 25.9575 82.9036 25.9575V27.9578H82.4001C81.8014 27.9578 81.3478 28.0984 81.0394 28.3797C80.74 28.6609 80.5903 29.1508 80.5903 29.8493V33.605H78.6852V26.0663H80.5903V27.2366Z" fill="#23262F"/>
<path d="M93.5489 25.9575C94.4742 25.9575 95.2181 26.2432 95.7806 26.8148C96.3521 27.3772 96.6379 28.1665 96.6379 29.1825V33.605H94.7328V29.4411C94.7328 28.8514 94.5831 28.4023 94.2837 28.0939C93.9844 27.7764 93.5761 27.6176 93.059 27.6176C92.5419 27.6176 92.1292 27.7764 91.8207 28.0939C91.5214 28.4023 91.3717 28.8514 91.3717 29.4411V33.605H89.4666V29.4411C89.4666 28.8514 89.3169 28.4023 89.0175 28.0939C88.7182 27.7764 88.3099 27.6176 87.7928 27.6176C87.2667 27.6176 86.8494 27.7764 86.5409 28.0939C86.2416 28.4023 86.0919 28.8514 86.0919 29.4411V33.605H84.1868V26.0663H86.0919V26.9781C86.3368 26.6606 86.6498 26.4111 87.0308 26.2296C87.4209 26.0482 87.8473 25.9575 88.3099 25.9575C88.8996 25.9575 89.4258 26.0845 89.8884 26.3385C90.3511 26.5834 90.7094 26.9372 90.9634 27.3999C91.2084 26.9645 91.5622 26.6152 92.0248 26.3521C92.4966 26.089 93.0046 25.9575 93.5489 25.9575Z" fill="#23262F"/>
<path d="M97.9558 29.8085C97.9558 29.0464 98.1055 28.3706 98.4049 27.7809C98.7133 27.1913 99.1261 26.7377 99.6432 26.4201C100.169 26.1026 100.754 25.9439 101.399 25.9439C101.961 25.9439 102.451 26.0573 102.868 26.2841C103.295 26.5109 103.635 26.7966 103.889 27.1414V26.0663H105.807V33.605H103.889V32.5028C103.644 32.8566 103.304 33.1514 102.868 33.3873C102.442 33.6141 101.947 33.7275 101.385 33.7275C100.75 33.7275 100.169 33.5642 99.6432 33.2376C99.1261 32.911 98.7133 32.4529 98.4049 31.8632C98.1055 31.2645 97.9558 30.5796 97.9558 29.8085ZM103.889 29.8357C103.889 29.373 103.798 28.9784 103.617 28.6518C103.435 28.3162 103.19 28.0621 102.882 27.8898C102.573 27.7083 102.242 27.6176 101.888 27.6176C101.535 27.6176 101.208 27.7038 100.909 27.8762C100.609 28.0485 100.364 28.3026 100.174 28.6382C99.9924 28.9648 99.9017 29.3549 99.9017 29.8085C99.9017 30.2621 99.9924 30.6612 100.174 31.006C100.364 31.3416 100.609 31.6002 100.909 31.7816C101.217 31.963 101.544 32.0538 101.888 32.0538C102.242 32.0538 102.573 31.9676 102.882 31.7952C103.19 31.6138 103.435 31.3598 103.617 31.0332C103.798 30.6975 103.889 30.2984 103.889 29.8357Z" fill="#23262F"/>
<path d="M114.88 26.0663L110.213 37.1703H108.185L109.818 33.4145L106.797 26.0663H108.934L110.88 31.3325L112.853 26.0663H114.88Z" fill="#23262F"/>
<path d="M115.417 29.8085C115.417 29.0464 115.567 28.3706 115.866 27.7809C116.175 27.1913 116.588 26.7377 117.105 26.4201C117.631 26.1026 118.216 25.9439 118.86 25.9439C119.423 25.9439 119.912 26.0573 120.33 26.2841C120.756 26.5109 121.096 26.7966 121.35 27.1414V26.0663H123.269V33.605H121.35V32.5028C121.105 32.8566 120.765 33.1514 120.33 33.3873C119.903 33.6141 119.409 33.7275 118.846 33.7275C118.211 33.7275 117.631 33.5642 117.105 33.2376C116.588 32.911 116.175 32.4529 115.866 31.8632C115.567 31.2645 115.417 30.5796 115.417 29.8085ZM121.35 29.8357C121.35 29.373 121.26 28.9784 121.078 28.6518C120.897 28.3162 120.652 28.0621 120.343 27.8898C120.035 27.7083 119.704 27.6176 119.35 27.6176C118.996 27.6176 118.67 27.7038 118.37 27.8762C118.071 28.0485 117.826 28.3026 117.635 28.6382C117.454 28.9648 117.363 29.3549 117.363 29.8085C117.363 30.2621 117.454 30.6612 117.635 31.006C117.826 31.3416 118.071 31.6002 118.37 31.7816C118.679 31.963 119.005 32.0538 119.35 32.0538C119.704 32.0538 120.035 31.9676 120.343 31.7952C120.652 31.6138 120.897 31.3598 121.078 31.0332C121.26 30.6975 121.35 30.2984 121.35 29.8357Z" fill="#23262F"/>
<defs>
<linearGradient id="paint0_linear_41_19908" x1="62.0818" y1="0" x2="62.0818" y2="40" gradientUnits="userSpaceOnUse">
<stop stop-color="#FBA83B"/>
<stop offset="1" stop-color="#FBA83B"/>
</linearGradient>
</defs>
</svg>