<svg width="17" height="20" viewBox="0 0 17 20" fill="none" xmlns="http://www.w3.org/2000/svg">
<path d="M6.90677 4.24609H2.77344C2.64083 4.24609 2.51365 4.19342 2.41988 4.09965C2.32612 4.00588 2.27344 3.8787 2.27344 3.74609C2.27344 3.61349 2.32612 3.48631 2.41988 3.39254C2.51365 3.29877 2.64083 3.24609 2.77344 3.24609H6.90677C7.03938 3.24609 7.16656 3.29877 7.26032 3.39254C7.35409 3.48631 7.40677 3.61349 7.40677 3.74609C7.40677 3.8787 7.35409 4.00588 7.26032 4.09965C7.16656 4.19342 7.03938 4.24609 6.90677 4.24609Z" fill="#8F95B2"/>
<path d="M2.78516 7.79637C2.65255 7.79637 2.52537 7.74369 2.4316 7.64993C2.33783 7.55616 2.28516 7.42898 2.28516 7.29637C2.28516 7.16376 2.33783 7.03659 2.4316 6.94282C2.52537 6.84905 2.65255 6.79637 2.78516 6.79637C3.16058 6.81971 3.5368 6.76579 3.89056 6.63794C4.24431 6.51008 4.56807 6.31101 4.84182 6.05304C5.70182 5.16971 5.67516 3.77637 5.67516 3.76304C5.67074 3.63043 5.71917 3.5015 5.80982 3.4046C5.90046 3.30771 6.02588 3.25079 6.15849 3.24637C6.2911 3.24195 6.42003 3.29039 6.51692 3.38103C6.61382 3.47168 6.67074 3.5971 6.67516 3.7297C6.67516 3.80637 6.71849 5.55304 5.56516 6.72971C5.20081 7.0902 4.76561 7.37114 4.28708 7.55475C3.80856 7.73835 3.29712 7.82063 2.78516 7.79637Z" fill="#8F95B2"/>
<path d="M6.90132 7.79385C5.21132 7.79385 3.92799 6.88385 3.29132 5.22385C3.24358 5.10009 3.24697 4.96242 3.30073 4.84115C3.35449 4.71988 3.45422 4.62493 3.57799 4.57719C3.70176 4.52945 3.83942 4.53283 3.96069 4.58659C4.08197 4.64035 4.17692 4.74009 4.22466 4.86385C4.71799 6.14719 5.61799 6.79385 6.89132 6.79385C7.02393 6.79385 7.15111 6.84653 7.24488 6.9403C7.33865 7.03407 7.39132 7.16125 7.39132 7.29385C7.39132 7.42646 7.33865 7.55364 7.24488 7.64741C7.15111 7.74118 7.02393 7.79385 6.89132 7.79385H6.90132ZM4.84132 4.24385C4.70872 4.24385 4.58154 4.19118 4.48777 4.09741C4.394 4.00364 4.34132 3.87646 4.34132 3.74385V2.36719C4.34132 2.23458 4.394 2.1074 4.48777 2.01363C4.58154 1.91987 4.70872 1.86719 4.84132 1.86719C4.97393 1.86719 5.10111 1.91987 5.19488 2.01363C5.28864 2.1074 5.34132 2.23458 5.34132 2.36719V3.74385C5.34132 3.87646 5.28864 4.00364 5.19488 4.09741C5.10111 4.19118 4.97393 4.24385 4.84132 4.24385Z" fill="#8F95B2"/>
<path d="M9.17448 9.66667H0.507812C0.375204 9.66667 0.248027 9.61399 0.154259 9.52022C0.0604909 9.42645 0.0078125 9.29928 0.0078125 9.16667V0.5C0.0078125 0.367392 0.0604909 0.240215 0.154259 0.146447C0.248027 0.0526784 0.375204 0 0.507812 0H9.17448C9.30709 0 9.43427 0.0526784 9.52803 0.146447C9.6218 0.240215 9.67448 0.367392 9.67448 0.5V9.16667C9.67448 9.29928 9.6218 9.42645 9.52803 9.52022C9.43427 9.61399 9.30709 9.66667 9.17448 9.66667ZM1.00781 8.66667H8.67448V1H1.00781V8.66667ZM16.5078 20H7.84115C7.70854 20 7.58136 19.9473 7.48759 19.8536C7.39382 19.7598 7.34115 19.6326 7.34115 19.5V10.8333C7.34115 10.7007 7.39382 10.5735 7.48759 10.4798C7.58136 10.386 7.70854 10.3333 7.84115 10.3333H16.5078C16.6404 10.3333 16.7676 10.386 16.8614 10.4798C16.9551 10.5735 17.0078 10.7007 17.0078 10.8333V19.5C17.0078 19.6326 16.9551 19.7598 16.8614 19.8536C16.7676 19.9473 16.6404 20 16.5078 20ZM8.34115 19H16.0078V11.3333H8.34115V19Z" fill="#8F95B2"/>
<path d="M10.1733 18.1658C10.1093 18.1666 10.0457 18.1541 9.98668 18.1292C9.92384 18.1047 9.86659 18.0678 9.81839 18.0207C9.77018 17.9735 9.732 17.9171 9.70616 17.8549C9.68031 17.7926 9.66733 17.7257 9.66799 17.6583C9.66866 17.5909 9.68295 17.5243 9.71001 17.4625L11.71 12.4625C11.7325 12.3989 11.7676 12.3404 11.8133 12.2907C11.8589 12.241 11.9142 12.201 11.9757 12.1732C12.0372 12.1455 12.1037 12.1304 12.1712 12.129C12.2387 12.1276 12.3057 12.1399 12.3684 12.1651C12.431 12.1904 12.4878 12.228 12.5355 12.2758C12.5832 12.3236 12.6207 12.3805 12.6457 12.4432C12.6708 12.5059 12.6829 12.573 12.6814 12.6404C12.6798 12.7079 12.6646 12.7744 12.6367 12.8358L10.6367 17.8358C10.6021 17.9314 10.5393 18.0142 10.4565 18.0732C10.3737 18.1321 10.275 18.1644 10.1733 18.1658Z" fill="#8F95B2"/>
<path d="M14.1761 18.1687C14.0765 18.1686 13.9791 18.1387 13.8966 18.0829C13.814 18.0271 13.75 17.9478 13.7128 17.8554L11.7128 12.8554C11.6849 12.7939 11.6697 12.7275 11.6681 12.66C11.6665 12.5925 11.6787 12.5254 11.7037 12.4627C11.7288 12.4001 11.7663 12.3431 11.814 12.2953C11.8617 12.2475 11.9185 12.2099 11.9811 12.1847C12.0437 12.1594 12.1108 12.1472 12.1783 12.1485C12.2458 12.1499 12.3123 12.165 12.3738 12.1928C12.4353 12.2206 12.4906 12.2605 12.5362 12.3102C12.5819 12.3599 12.617 12.4184 12.6395 12.482L14.6395 17.482C14.6665 17.5438 14.6808 17.6104 14.6815 17.6778C14.6822 17.7452 14.6692 17.8121 14.6433 17.8744C14.6175 17.9367 14.5793 17.9931 14.5311 18.0402C14.4829 18.0874 14.4256 18.1243 14.3628 18.1487C14.3026 18.168 14.2391 18.1748 14.1761 18.1687Z" fill="#8F95B2"/>
<path d="M13.5065 16.5005H10.8398C10.7072 16.5005 10.5801 16.4478 10.4863 16.354C10.3925 16.2603 10.3398 16.1331 10.3398 16.0005C10.3398 15.8679 10.3925 15.7407 10.4863 15.6469C10.5801 15.5531 10.7072 15.5005 10.8398 15.5005H13.5065C13.6391 15.5005 13.7663 15.5531 13.8601 15.6469C13.9538 15.7407 14.0065 15.8679 14.0065 16.0005C14.0065 16.1331 13.9538 16.2603 13.8601 16.354C13.7663 16.4478 13.6391 16.5005 13.5065 16.5005ZM15.0065 9.00046C14.8739 9.00046 14.7467 8.94779 14.653 8.85402C14.5592 8.76025 14.5065 8.63307 14.5065 8.50046C14.5065 4.28713 11.6498 3.35046 11.5265 3.31046C11.4028 3.26939 11.3 3.18165 11.2401 3.06591C11.1801 2.95018 11.1678 2.81562 11.2056 2.69089C11.2434 2.56616 11.3284 2.46112 11.4425 2.39816C11.5566 2.33519 11.6908 2.31927 11.8165 2.3538C11.9665 2.40046 15.5065 3.52046 15.5065 8.50046C15.5065 8.63307 15.4538 8.76025 15.3601 8.85402C15.2663 8.94779 15.1391 9.00046 15.0065 9.00046Z" fill="#8F95B2"/>
<path d="M15.0078 8.99767C14.894 8.99725 14.7836 8.9585 14.6945 8.88767L13.0278 7.55434C12.9766 7.51319 12.934 7.46236 12.9024 7.40475C12.8708 7.34713 12.8509 7.28386 12.8438 7.21855C12.8367 7.15324 12.8425 7.08717 12.8609 7.0241C12.8793 6.96104 12.91 6.90222 12.9511 6.85101C12.9923 6.79979 13.0431 6.75718 13.1007 6.72561C13.1584 6.69404 13.2216 6.67413 13.2869 6.66701C13.3522 6.65989 13.4183 6.6657 13.4814 6.68412C13.5444 6.70254 13.6033 6.73319 13.6545 6.77434L15.3211 8.10767C15.4239 8.19124 15.4895 8.31194 15.5039 8.4436C15.5182 8.57525 15.4801 8.70726 15.3978 8.81101C15.3512 8.86969 15.2919 8.917 15.2243 8.94934C15.1568 8.98168 15.0827 8.99821 15.0078 8.99767ZM5.34115 17.6643C5.29268 17.6643 5.24445 17.6575 5.19781 17.6443C5.04781 17.5977 1.50781 16.4777 1.50781 11.4977C1.50781 11.3651 1.56049 11.2379 1.65426 11.1441C1.74803 11.0504 1.8752 10.9977 2.00781 10.9977C2.14042 10.9977 2.2676 11.0504 2.36137 11.1441C2.45513 11.2379 2.50781 11.3651 2.50781 11.4977C2.50781 15.711 5.36448 16.6643 5.48781 16.6877C5.60128 16.7236 5.69821 16.7988 5.76118 16.8998C5.82415 17.0008 5.84904 17.1209 5.83136 17.2386C5.81369 17.3563 5.75462 17.4638 5.66476 17.5419C5.5749 17.6199 5.46015 17.6633 5.34115 17.6643Z" fill="#8F95B2"/>
<path d="M3.67476 13.3336C3.56092 13.3332 3.45055 13.2944 3.36142 13.2236L1.69476 11.8903C1.59132 11.8072 1.52514 11.6864 1.51076 11.5545C1.49638 11.4226 1.53499 11.2904 1.61809 11.1869C1.70119 11.0835 1.82198 11.0173 1.95388 11.0029C2.08578 10.9886 2.21799 11.0272 2.32142 11.1103L3.98809 12.4436C4.09083 12.5272 4.15649 12.6479 4.17085 12.7795C4.1852 12.9112 4.14708 13.0432 4.06476 13.1469C4.01819 13.2056 3.95887 13.2529 3.8913 13.2853C3.82372 13.3176 3.74967 13.3342 3.67476 13.3336Z" fill="#8F95B2"/>
</svg>
