<svg width="20" height="20" viewBox="0 0 20 20" fill="none" xmlns="http://www.w3.org/2000/svg">
<path d="M0 0.526316V19.4737C0 19.7632 0.236842 20 0.526316 20H19.4737C19.7632 20 20 19.7632 20 19.4737V0.526316C20 0.236842 19.7632 0 19.4737 0H0.526316C0.236842 0 0 0.236842 0 0.526316ZM1.05263 1.05263H18.9474V18.9474H1.05263V1.05263Z" fill="#8F95B2"/>
<path d="M17.3684 2.10547H12.1052C11.8158 2.10547 11.5789 2.34231 11.5789 2.63178V7.89494C11.5789 8.18442 11.8158 8.42126 12.1052 8.42126H17.3684C17.6579 8.42126 17.8947 8.18442 17.8947 7.89494V2.63178C17.8947 2.34231 17.6579 2.10547 17.3684 2.10547ZM16.8421 7.36863H12.6315V3.1581H16.8421V7.36863ZM2.63154 3.1581H9.99996C10.2894 3.1581 10.5263 2.92126 10.5263 2.63178C10.5263 2.34231 10.2894 2.10547 9.99996 2.10547H2.63154C2.34207 2.10547 2.10522 2.34231 2.10522 2.63178C2.10522 2.92126 2.34207 3.1581 2.63154 3.1581ZM2.63154 4.73705H9.99996C10.2894 4.73705 10.5263 4.50021 10.5263 4.21073C10.5263 3.92126 10.2894 3.68442 9.99996 3.68442H2.63154C2.34207 3.68442 2.10522 3.92126 2.10522 4.21073C2.10522 4.50021 2.34207 4.73705 2.63154 4.73705ZM2.63154 6.316H9.99996C10.2894 6.316 10.5263 6.07915 10.5263 5.78968C10.5263 5.50021 10.2894 5.26336 9.99996 5.26336H2.63154C2.34207 5.26336 2.10522 5.50021 2.10522 5.78968C2.10522 6.07915 2.34207 6.316 2.63154 6.316ZM2.63154 7.89494H9.99996C10.2894 7.89494 10.5263 7.6581 10.5263 7.36863C10.5263 7.07915 10.2894 6.84231 9.99996 6.84231H2.63154C2.34207 6.84231 2.10522 7.07915 2.10522 7.36863C2.10522 7.6581 2.34207 7.89494 2.63154 7.89494ZM2.63154 9.47389H9.99996C10.2894 9.47389 10.5263 9.23705 10.5263 8.94757C10.5263 8.6581 10.2894 8.42126 9.99996 8.42126H2.63154C2.34207 8.42126 2.10522 8.6581 2.10522 8.94757C2.10522 9.23705 2.34207 9.47389 2.63154 9.47389ZM7.8947 11.5792H2.63154C2.34207 11.5792 2.10522 11.816 2.10522 12.1055V17.3686C2.10522 17.6581 2.34207 17.8949 2.63154 17.8949H7.8947C8.18417 17.8949 8.42101 17.6581 8.42101 17.3686V12.1055C8.42101 11.816 8.18417 11.5792 7.8947 11.5792ZM7.36838 16.8423H3.15786V12.6318H7.36838V16.8423ZM17.3684 16.8423H9.99996C9.71049 16.8423 9.47365 17.0792 9.47365 17.3686C9.47365 17.6581 9.71049 17.8949 9.99996 17.8949H17.3684C17.6579 17.8949 17.8947 17.6581 17.8947 17.3686C17.8947 17.0792 17.6579 16.8423 17.3684 16.8423ZM17.3684 15.2634H9.99996C9.71049 15.2634 9.47365 15.5002 9.47365 15.7897C9.47365 16.0792 9.71049 16.316 9.99996 16.316H17.3684C17.6579 16.316 17.8947 16.0792 17.8947 15.7897C17.8947 15.5002 17.6579 15.2634 17.3684 15.2634ZM17.3684 13.6844H9.99996C9.71049 13.6844 9.47365 13.9213 9.47365 14.2107C9.47365 14.5002 9.71049 14.737 9.99996 14.737H17.3684C17.6579 14.737 17.8947 14.5002 17.8947 14.2107C17.8947 13.9213 17.6579 13.6844 17.3684 13.6844ZM17.3684 12.1055H9.99996C9.71049 12.1055 9.47365 12.3423 9.47365 12.6318C9.47365 12.9213 9.71049 13.1581 9.99996 13.1581H17.3684C17.6579 13.1581 17.8947 12.9213 17.8947 12.6318C17.8947 12.3423 17.6579 12.1055 17.3684 12.1055ZM17.3684 10.5265H9.99996C9.71049 10.5265 9.47365 10.7634 9.47365 11.0528C9.47365 11.3423 9.71049 11.5792 9.99996 11.5792H17.3684C17.6579 11.5792 17.8947 11.3423 17.8947 11.0528C17.8947 10.7634 17.6579 10.5265 17.3684 10.5265Z" fill="#8F95B2"/>
</svg>
