<svg width="24" height="24" viewBox="0 0 24 24" fill="none" xmlns="http://www.w3.org/2000/svg">
<path opacity="0.4" d="M5.06726 1.41157C5.63395 1.52869 6.08524 1.90943 6.36564 2.41246L7.25885 4.01491C7.58786 4.60511 7.86473 5.1018 8.04554 5.53357C8.23735 5.99158 8.35126 6.44324 8.29919 6.9426C8.24711 7.44196 8.04246 7.8604 7.76029 8.26899C7.49428 8.65417 7.12088 9.08304 6.67718 9.59267L5.36417 11.1009C5.12889 11.3711 5.01124 11.5062 5.00049 11.6751C4.98974 11.844 5.08616 11.9883 5.279 12.2768C6.92259 14.7359 9.13773 16.9518 11.5988 18.5968C11.8874 18.7897 12.0316 18.8861 12.2005 18.8753C12.3694 18.8646 12.5046 18.7469 12.7748 18.5116L14.2831 17.1986C14.7927 16.7549 15.2216 16.3815 15.6068 16.1155C16.0153 15.8333 16.4338 15.6286 16.9331 15.5766C17.4325 15.5245 17.8842 15.6384 18.3422 15.8302C18.7739 16.011 19.2706 16.2879 19.8607 16.6168L19.8609 16.6169L21.4633 17.5101C21.9663 17.7905 22.3471 18.2418 22.4642 18.8085C22.5825 19.3811 22.408 19.9566 22.0224 20.4297C20.6235 22.146 18.3822 23.2389 16.031 22.7646C14.5858 22.473 13.1598 21.9873 11.4351 20.9982C7.9697 19.0108 4.86263 15.902 2.87755 12.4407C1.88843 10.716 1.40272 9.29 1.11118 7.84474C0.63688 5.49352 1.72971 3.25224 3.44608 1.85333C3.91911 1.46779 4.49466 1.29322 5.06726 1.41157Z" fill="#FE5A1D"/>
<path fill-rule="evenodd" clip-rule="evenodd" d="M6.36564 2.41246C6.08524 1.90943 5.63395 1.52869 5.06726 1.41157C4.49466 1.29322 3.91911 1.46779 3.44608 1.85333C1.72971 3.25224 0.63688 5.49352 1.11118 7.84474C1.40272 9.29 1.88843 10.716 2.87755 12.4407C3.89623 14.2169 5.21037 15.9003 6.71678 17.387L8.20042 15.8099C7.10649 14.7247 6.11824 13.5325 5.279 12.2768C5.08616 11.9883 4.98974 11.844 5.00049 11.6751C5.01124 11.5062 5.12889 11.3711 5.36417 11.1009L6.67718 9.59267C7.12088 9.08304 7.49428 8.65417 7.76029 8.26899C8.04246 7.8604 8.24711 7.44196 8.29919 6.9426C8.35126 6.44324 8.23735 5.99158 8.04554 5.53357C7.86473 5.1018 7.58786 4.60511 7.25885 4.01491L6.36564 2.41246Z" fill="#FE5A1D"/>
</svg>
