<svg width="20" height="13" viewBox="0 0 20 13" fill="none" xmlns="http://www.w3.org/2000/svg">
<path d="M17.3077 12.3077H2.69231C1.97826 12.3077 1.29346 12.024 0.788559 11.5191C0.283653 11.0142 0 10.3294 0 9.61539V2.69231C0 1.97826 0.283653 1.29346 0.788559 0.788559C1.29346 0.283653 1.97826 0 2.69231 0H17.3077C18.0217 0 18.7065 0.283653 19.2114 0.788559C19.7163 1.29346 20 1.97826 20 2.69231V9.61539C20 10.3294 19.7163 11.0142 19.2114 11.5191C18.7065 12.024 18.0217 12.3077 17.3077 12.3077ZM2.69231 0.769231C2.18228 0.769231 1.69313 0.97184 1.33249 1.33249C0.97184 1.69313 0.769231 2.18228 0.769231 2.69231V9.61539C0.769231 10.1254 0.97184 10.6146 1.33249 10.9752C1.69313 11.3359 2.18228 11.5385 2.69231 11.5385H17.3077C17.8177 11.5385 18.3069 11.3359 18.6675 10.9752C19.0282 10.6146 19.2308 10.1254 19.2308 9.61539V2.69231C19.2308 2.18228 19.0282 1.69313 18.6675 1.33249C18.3069 0.97184 17.8177 0.769231 17.3077 0.769231H2.69231Z" fill="#8F95B2"/>
<path d="M16.5373 4.9988C16.233 4.9988 15.9355 4.90857 15.6825 4.73952C15.4295 4.57047 15.2323 4.3302 15.1159 4.04908C14.9995 3.76796 14.969 3.45863 15.0284 3.1602C15.0877 2.86177 15.2342 2.58764 15.4494 2.37248C15.6646 2.15732 15.9387 2.0108 16.2371 1.95144C16.5356 1.89207 16.8449 1.92254 17.126 2.03898C17.4071 2.15543 17.6474 2.35262 17.8164 2.60561C17.9855 2.85861 18.0757 3.15606 18.0757 3.46034C18.0757 3.86836 17.9136 4.25968 17.6251 4.54819C17.3366 4.83671 16.9453 4.9988 16.5373 4.9988ZM16.5373 2.69111C16.3851 2.69111 16.2364 2.73622 16.1099 2.82075C15.9834 2.90527 15.8848 3.02541 15.8266 3.16597C15.7684 3.30652 15.7531 3.46119 15.7828 3.61041C15.8125 3.75962 15.8858 3.89669 15.9933 4.00427C16.1009 4.11184 16.238 4.18511 16.3872 4.21479C16.5364 4.24447 16.6911 4.22924 16.8316 4.17101C16.9722 4.11279 17.0923 4.0142 17.1769 3.8877C17.2614 3.7612 17.3065 3.61248 17.3065 3.46034C17.3065 3.25632 17.2254 3.06067 17.0812 2.91641C16.9369 2.77215 16.7413 2.69111 16.5373 2.69111ZM5.38341 8.07572H3.07572C2.7697 8.07572 2.47622 7.95416 2.25983 7.73777C2.04344 7.52138 1.92188 7.22789 1.92188 6.92188V5.38341C1.92188 5.0774 2.04344 4.78391 2.25983 4.56752C2.47622 4.35113 2.7697 4.22957 3.07572 4.22957H5.38341C5.68943 4.22957 5.98292 4.35113 6.19931 4.56752C6.41569 4.78391 6.53726 5.0774 6.53726 5.38341V6.92188C6.53726 7.22789 6.41569 7.52138 6.19931 7.73777C5.98292 7.95416 5.68943 8.07572 5.38341 8.07572ZM3.07572 4.9988C2.97371 4.9988 2.87589 5.03932 2.80376 5.11145C2.73163 5.18358 2.69111 5.28141 2.69111 5.38341V6.92188C2.69111 7.02388 2.73163 7.12171 2.80376 7.19384C2.87589 7.26597 2.97371 7.30649 3.07572 7.30649H5.38341C5.48542 7.30649 5.58325 7.26597 5.65538 7.19384C5.72751 7.12171 5.76803 7.02388 5.76803 6.92188V5.38341C5.76803 5.28141 5.72751 5.18358 5.65538 5.11145C5.58325 5.03932 5.48542 4.9988 5.38341 4.9988H3.07572ZM14.6142 6.53726H7.69111C7.5891 6.53726 7.49127 6.49674 7.41914 6.42461C7.34701 6.35248 7.30649 6.25465 7.30649 6.15265C7.30649 6.05064 7.34701 5.95281 7.41914 5.88068C7.49127 5.80855 7.5891 5.76803 7.69111 5.76803H14.6142C14.7162 5.76803 14.814 5.80855 14.8861 5.88068C14.9583 5.95281 14.9988 6.05064 14.9988 6.15265C14.9988 6.25465 14.9583 6.35248 14.8861 6.42461C14.814 6.49674 14.7162 6.53726 14.6142 6.53726ZM17.6911 10.3834H14.6142C14.5122 10.3834 14.4143 10.3429 14.3422 10.2708C14.2701 10.1986 14.2296 10.1008 14.2296 9.9988C14.2296 9.89679 14.2701 9.79896 14.3422 9.72683C14.4143 9.65471 14.5122 9.61418 14.6142 9.61418H17.6911C17.7931 9.61418 17.8909 9.65471 17.9631 9.72683C18.0352 9.79896 18.0757 9.89679 18.0757 9.9988C18.0757 10.1008 18.0352 10.1986 17.9631 10.2708C17.8909 10.3429 17.7931 10.3834 17.6911 10.3834ZM13.0757 10.3834H11.9219C11.8199 10.3834 11.722 10.3429 11.6499 10.2708C11.5778 10.1986 11.5373 10.1008 11.5373 9.9988C11.5373 9.89679 11.5778 9.79896 11.6499 9.72683C11.722 9.65471 11.8199 9.61418 11.9219 9.61418H13.0757C13.1777 9.61418 13.2756 9.65471 13.3477 9.72683C13.4198 9.79896 13.4603 9.89679 13.4603 9.9988C13.4603 10.1008 13.4198 10.1986 13.3477 10.2708C13.2756 10.3429 13.1777 10.3834 13.0757 10.3834Z" fill="#8F95B2"/>
</svg>
