<svg width="21" height="20" viewBox="0 0 21 20" fill="none" xmlns="http://www.w3.org/2000/svg">
<path d="M5.50391 0H1.75391C1.42239 0 1.10444 0.131696 0.870023 0.366117C0.635602 0.600537 0.503906 0.918479 0.503906 1.25L0.503906 5C0.503906 5.33152 0.635602 5.64946 0.870023 5.88388C1.10444 6.1183 1.42239 6.25 1.75391 6.25H5.50391C5.83543 6.25 6.15337 6.1183 6.38779 5.88388C6.62221 5.64946 6.75391 5.33152 6.75391 5V1.25C6.75391 0.918479 6.62221 0.600537 6.38779 0.366117C6.15337 0.131696 5.83543 0 5.50391 0ZM6.12891 5C6.12891 5.16576 6.06306 5.32473 5.94585 5.44194C5.82864 5.55915 5.66967 5.625 5.50391 5.625H1.75391C1.58815 5.625 1.42917 5.55915 1.31196 5.44194C1.19475 5.32473 1.12891 5.16576 1.12891 5V1.25C1.12891 1.08424 1.19475 0.925268 1.31196 0.808058C1.42917 0.690848 1.58815 0.625 1.75391 0.625H5.50391C5.66967 0.625 5.82864 0.690848 5.94585 0.808058C6.06306 0.925268 6.12891 1.08424 6.12891 1.25V5Z" fill="#8F95B2"/>
<path d="M3.16016 1.25H2.22266C2.09834 1.25 1.97911 1.29939 1.8912 1.38729C1.80329 1.4752 1.75391 1.59443 1.75391 1.71875V2.65625C1.75391 2.69769 1.77037 2.73743 1.79967 2.76674C1.82897 2.79604 1.86872 2.8125 1.91016 2.8125C1.9516 2.8125 1.99134 2.79604 2.02064 2.76674C2.04994 2.73743 2.06641 2.69769 2.06641 2.65625V1.71875C2.06641 1.67731 2.08287 1.63757 2.11217 1.60826C2.14147 1.57896 2.18122 1.5625 2.22266 1.5625H3.16016C3.2016 1.5625 3.24134 1.54604 3.27064 1.51674C3.29994 1.48743 3.31641 1.44769 3.31641 1.40625C3.31641 1.36481 3.29994 1.32507 3.27064 1.29576C3.24134 1.26646 3.2016 1.25 3.16016 1.25ZM19.2539 0H15.5039C15.1724 0 14.8544 0.131696 14.62 0.366117C14.3856 0.600537 14.2539 0.918479 14.2539 1.25V5C14.2539 5.33152 14.3856 5.64946 14.62 5.88388C14.8544 6.1183 15.1724 6.25 15.5039 6.25H19.2539C19.5854 6.25 19.9034 6.1183 20.1378 5.88388C20.3722 5.64946 20.5039 5.33152 20.5039 5V1.25C20.5039 0.918479 20.3722 0.600537 20.1378 0.366117C19.9034 0.131696 19.5854 0 19.2539 0ZM19.8789 5C19.8789 5.16576 19.8131 5.32473 19.6958 5.44194C19.5786 5.55915 19.4197 5.625 19.2539 5.625H15.5039C15.3381 5.625 15.1792 5.55915 15.062 5.44194C14.9448 5.32473 14.8789 5.16576 14.8789 5V1.25C14.8789 1.08424 14.9448 0.925268 15.062 0.808058C15.1792 0.690848 15.3381 0.625 15.5039 0.625H19.2539C19.4197 0.625 19.5786 0.690848 19.6958 0.808058C19.8131 0.925268 19.8789 1.08424 19.8789 1.25V5Z" fill="#8F95B2"/>
<path d="M16.9102 1.25H15.9727C15.8483 1.25 15.7291 1.29939 15.6412 1.38729C15.5533 1.4752 15.5039 1.59443 15.5039 1.71875V2.65625C15.5039 2.69769 15.5204 2.73743 15.5497 2.76674C15.579 2.79604 15.6187 2.8125 15.6602 2.8125C15.7016 2.8125 15.7413 2.79604 15.7706 2.76674C15.7999 2.73743 15.8164 2.69769 15.8164 2.65625V1.71875C15.8164 1.67731 15.8329 1.63757 15.8622 1.60826C15.8915 1.57896 15.9312 1.5625 15.9727 1.5625H16.9102C16.9516 1.5625 16.9913 1.54604 17.0206 1.51674C17.0499 1.48743 17.0664 1.44769 17.0664 1.40625C17.0664 1.36481 17.0499 1.32507 17.0206 1.29576C16.9913 1.26646 16.9516 1.25 16.9102 1.25ZM12.3789 0H8.62891C8.29739 0 7.97944 0.131696 7.74502 0.366117C7.5106 0.600537 7.37891 0.918479 7.37891 1.25V5C7.37891 5.33152 7.5106 5.64946 7.74502 5.88388C7.97944 6.1183 8.29739 6.25 8.62891 6.25H12.3789C12.7104 6.25 13.0284 6.1183 13.2628 5.88388C13.4972 5.64946 13.6289 5.33152 13.6289 5V1.25C13.6289 0.918479 13.4972 0.600537 13.2628 0.366117C13.0284 0.131696 12.7104 0 12.3789 0ZM13.0039 5C13.0039 5.16576 12.9381 5.32473 12.8208 5.44194C12.7036 5.55915 12.5447 5.625 12.3789 5.625H8.62891C8.46315 5.625 8.30417 5.55915 8.18696 5.44194C8.06975 5.32473 8.00391 5.16576 8.00391 5V1.25C8.00391 1.08424 8.06975 0.925268 8.18696 0.808058C8.30417 0.690848 8.46315 0.625 8.62891 0.625H12.3789C12.5447 0.625 12.7036 0.690848 12.8208 0.808058C12.9381 0.925268 13.0039 1.08424 13.0039 1.25V5Z" fill="#8F95B2"/>
<path d="M10.0352 1.25H9.09766C8.97334 1.25 8.85411 1.29939 8.7662 1.38729C8.67829 1.4752 8.62891 1.59443 8.62891 1.71875V2.65625C8.62891 2.69769 8.64537 2.73743 8.67467 2.76674C8.70397 2.79604 8.74372 2.8125 8.78516 2.8125C8.8266 2.8125 8.86634 2.79604 8.89564 2.76674C8.92494 2.73743 8.94141 2.69769 8.94141 2.65625V1.71875C8.94141 1.67731 8.95787 1.63757 8.98717 1.60826C9.01647 1.57896 9.05622 1.5625 9.09766 1.5625H10.0352C10.0766 1.5625 10.1163 1.54604 10.1456 1.51674C10.1749 1.48743 10.1914 1.44769 10.1914 1.40625C10.1914 1.36481 10.1749 1.32507 10.1456 1.29576C10.1163 1.26646 10.0766 1.25 10.0352 1.25Z" fill="#8F95B2"/>
<path d="M5.50391 6.875H1.75391C1.42239 6.875 1.10444 7.0067 0.870023 7.24112C0.635602 7.47554 0.503906 7.79348 0.503906 8.125L0.503906 11.875C0.503906 12.2065 0.635602 12.5245 0.870023 12.7589C1.10444 12.9933 1.42239 13.125 1.75391 13.125H5.50391C5.83543 13.125 6.15337 12.9933 6.38779 12.7589C6.62221 12.5245 6.75391 12.2065 6.75391 11.875V8.125C6.75391 7.79348 6.62221 7.47554 6.38779 7.24112C6.15337 7.0067 5.83543 6.875 5.50391 6.875ZM6.12891 11.875C6.12891 12.0408 6.06306 12.1997 5.94585 12.3169C5.82864 12.4342 5.66967 12.5 5.50391 12.5H1.75391C1.58815 12.5 1.42917 12.4342 1.31196 12.3169C1.19475 12.1997 1.12891 12.0408 1.12891 11.875V8.125C1.12891 7.95924 1.19475 7.80027 1.31196 7.68306C1.42917 7.56585 1.58815 7.5 1.75391 7.5H5.50391C5.66967 7.5 5.82864 7.56585 5.94585 7.68306C6.06306 7.80027 6.12891 7.95924 6.12891 8.125V11.875Z" fill="#8F95B2"/>
<path d="M3.16016 8.125H2.22266C2.09834 8.125 1.97911 8.17439 1.8912 8.26229C1.80329 8.3502 1.75391 8.46943 1.75391 8.59375V9.53125C1.75391 9.57269 1.77037 9.61243 1.79967 9.64174C1.82897 9.67104 1.86872 9.6875 1.91016 9.6875C1.9516 9.6875 1.99134 9.67104 2.02064 9.64174C2.04994 9.61243 2.06641 9.57269 2.06641 9.53125V8.59375C2.06641 8.55231 2.08287 8.51257 2.11217 8.48326C2.14147 8.45396 2.18122 8.4375 2.22266 8.4375H3.16016C3.2016 8.4375 3.24134 8.42104 3.27064 8.39174C3.29994 8.36243 3.31641 8.32269 3.31641 8.28125C3.31641 8.23981 3.29994 8.20007 3.27064 8.17076C3.24134 8.14146 3.2016 8.125 3.16016 8.125ZM19.2539 6.875H15.5039C15.1724 6.875 14.8544 7.0067 14.62 7.24112C14.3856 7.47554 14.2539 7.79348 14.2539 8.125V11.875C14.2539 12.2065 14.3856 12.5245 14.62 12.7589C14.8544 12.9933 15.1724 13.125 15.5039 13.125H19.2539C19.5854 13.125 19.9034 12.9933 20.1378 12.7589C20.3722 12.5245 20.5039 12.2065 20.5039 11.875V8.125C20.5039 7.79348 20.3722 7.47554 20.1378 7.24112C19.9034 7.0067 19.5854 6.875 19.2539 6.875ZM19.8789 11.875C19.8789 12.0408 19.8131 12.1997 19.6958 12.3169C19.5786 12.4342 19.4197 12.5 19.2539 12.5H15.5039C15.3381 12.5 15.1792 12.4342 15.062 12.3169C14.9448 12.1997 14.8789 12.0408 14.8789 11.875V8.125C14.8789 7.95924 14.9448 7.80027 15.062 7.68306C15.1792 7.56585 15.3381 7.5 15.5039 7.5H19.2539C19.4197 7.5 19.5786 7.56585 19.6958 7.68306C19.8131 7.80027 19.8789 7.95924 19.8789 8.125V11.875Z" fill="#8F95B2"/>
<path d="M16.9102 8.125H15.9727C15.8483 8.125 15.7291 8.17439 15.6412 8.26229C15.5533 8.3502 15.5039 8.46943 15.5039 8.59375V9.53125C15.5039 9.57269 15.5204 9.61243 15.5497 9.64174C15.579 9.67104 15.6187 9.6875 15.6602 9.6875C15.7016 9.6875 15.7413 9.67104 15.7706 9.64174C15.7999 9.61243 15.8164 9.57269 15.8164 9.53125V8.59375C15.8164 8.55231 15.8329 8.51257 15.8622 8.48326C15.8915 8.45396 15.9312 8.4375 15.9727 8.4375H16.9102C16.9516 8.4375 16.9913 8.42104 17.0206 8.39174C17.0499 8.36243 17.0664 8.32269 17.0664 8.28125C17.0664 8.23981 17.0499 8.20007 17.0206 8.17076C16.9913 8.14146 16.9516 8.125 16.9102 8.125ZM12.3789 6.875H8.62891C8.29739 6.875 7.97944 7.0067 7.74502 7.24112C7.5106 7.47554 7.37891 7.79348 7.37891 8.125V11.875C7.37891 12.2065 7.5106 12.5245 7.74502 12.7589C7.97944 12.9933 8.29739 13.125 8.62891 13.125H12.3789C12.7104 13.125 13.0284 12.9933 13.2628 12.7589C13.4972 12.5245 13.6289 12.2065 13.6289 11.875V8.125C13.6289 7.79348 13.4972 7.47554 13.2628 7.24112C13.0284 7.0067 12.7104 6.875 12.3789 6.875ZM13.0039 11.875C13.0039 12.0408 12.9381 12.1997 12.8208 12.3169C12.7036 12.4342 12.5447 12.5 12.3789 12.5H8.62891C8.46315 12.5 8.30417 12.4342 8.18696 12.3169C8.06975 12.1997 8.00391 12.0408 8.00391 11.875V8.125C8.00391 7.95924 8.06975 7.80027 8.18696 7.68306C8.30417 7.56585 8.46315 7.5 8.62891 7.5H12.3789C12.5447 7.5 12.7036 7.56585 12.8208 7.68306C12.9381 7.80027 13.0039 7.95924 13.0039 8.125V11.875Z" fill="#8F95B2"/>
<path d="M10.0352 8.125H9.09766C8.97334 8.125 8.85411 8.17439 8.7662 8.26229C8.67829 8.3502 8.62891 8.46943 8.62891 8.59375V9.53125C8.62891 9.57269 8.64537 9.61243 8.67467 9.64174C8.70397 9.67104 8.74372 9.6875 8.78516 9.6875C8.8266 9.6875 8.86634 9.67104 8.89564 9.64174C8.92494 9.61243 8.94141 9.57269 8.94141 9.53125V8.59375C8.94141 8.55231 8.95787 8.51257 8.98717 8.48326C9.01647 8.45396 9.05622 8.4375 9.09766 8.4375H10.0352C10.0766 8.4375 10.1163 8.42104 10.1456 8.39174C10.1749 8.36243 10.1914 8.32269 10.1914 8.28125C10.1914 8.23981 10.1749 8.20007 10.1456 8.17076C10.1163 8.14146 10.0766 8.125 10.0352 8.125Z" fill="#8F95B2"/>
<path d="M5.50391 13.75H1.75391C1.42239 13.75 1.10444 13.8817 0.870023 14.1161C0.635602 14.3505 0.503906 14.6685 0.503906 15L0.503906 18.75C0.503906 19.0815 0.635602 19.3995 0.870023 19.6339C1.10444 19.8683 1.42239 20 1.75391 20H5.50391C5.83543 20 6.15337 19.8683 6.38779 19.6339C6.62221 19.3995 6.75391 19.0815 6.75391 18.75V15C6.75391 14.6685 6.62221 14.3505 6.38779 14.1161C6.15337 13.8817 5.83543 13.75 5.50391 13.75ZM6.12891 18.75C6.12891 18.9158 6.06306 19.0747 5.94585 19.1919C5.82864 19.3092 5.66967 19.375 5.50391 19.375H1.75391C1.58815 19.375 1.42917 19.3092 1.31196 19.1919C1.19475 19.0747 1.12891 18.9158 1.12891 18.75V15C1.12891 14.8342 1.19475 14.6753 1.31196 14.5581C1.42917 14.4408 1.58815 14.375 1.75391 14.375H5.50391C5.66967 14.375 5.82864 14.4408 5.94585 14.5581C6.06306 14.6753 6.12891 14.8342 6.12891 15V18.75Z" fill="#8F95B2"/>
<path d="M3.16016 15H2.22266C2.09834 15 1.97911 15.0494 1.8912 15.1373C1.80329 15.2252 1.75391 15.3444 1.75391 15.4688V16.4062C1.75391 16.4477 1.77037 16.4874 1.79967 16.5167C1.82897 16.546 1.86872 16.5625 1.91016 16.5625C1.9516 16.5625 1.99134 16.546 2.02064 16.5167C2.04994 16.4874 2.06641 16.4477 2.06641 16.4062V15.4688C2.06641 15.4273 2.08287 15.3876 2.11217 15.3583C2.14147 15.329 2.18122 15.3125 2.22266 15.3125H3.16016C3.2016 15.3125 3.24134 15.296 3.27064 15.2667C3.29994 15.2374 3.31641 15.1977 3.31641 15.1562C3.31641 15.1148 3.29994 15.0751 3.27064 15.0458C3.24134 15.0165 3.2016 15 3.16016 15ZM19.2539 13.75H15.5039C15.1724 13.75 14.8544 13.8817 14.62 14.1161C14.3856 14.3505 14.2539 14.6685 14.2539 15V18.75C14.2539 19.0815 14.3856 19.3995 14.62 19.6339C14.8544 19.8683 15.1724 20 15.5039 20H19.2539C19.5854 20 19.9034 19.8683 20.1378 19.6339C20.3722 19.3995 20.5039 19.0815 20.5039 18.75V15C20.5039 14.6685 20.3722 14.3505 20.1378 14.1161C19.9034 13.8817 19.5854 13.75 19.2539 13.75ZM19.8789 18.75C19.8789 18.9158 19.8131 19.0747 19.6958 19.1919C19.5786 19.3092 19.4197 19.375 19.2539 19.375H15.5039C15.3381 19.375 15.1792 19.3092 15.062 19.1919C14.9448 19.0747 14.8789 18.9158 14.8789 18.75V15C14.8789 14.8342 14.9448 14.6753 15.062 14.5581C15.1792 14.4408 15.3381 14.375 15.5039 14.375H19.2539C19.4197 14.375 19.5786 14.4408 19.6958 14.5581C19.8131 14.6753 19.8789 14.8342 19.8789 15V18.75Z" fill="#8F95B2"/>
<path d="M16.9102 15H15.9727C15.8483 15 15.7291 15.0494 15.6412 15.1373C15.5533 15.2252 15.5039 15.3444 15.5039 15.4688V16.4062C15.5039 16.4477 15.5204 16.4874 15.5497 16.5167C15.579 16.546 15.6187 16.5625 15.6602 16.5625C15.7016 16.5625 15.7413 16.546 15.7706 16.5167C15.7999 16.4874 15.8164 16.4477 15.8164 16.4062V15.4688C15.8164 15.4273 15.8329 15.3876 15.8622 15.3583C15.8915 15.329 15.9312 15.3125 15.9727 15.3125H16.9102C16.9516 15.3125 16.9913 15.296 17.0206 15.2667C17.0499 15.2374 17.0664 15.1977 17.0664 15.1562C17.0664 15.1148 17.0499 15.0751 17.0206 15.0458C16.9913 15.0165 16.9516 15 16.9102 15ZM12.3789 13.75H8.62891C8.29739 13.75 7.97944 13.8817 7.74502 14.1161C7.5106 14.3505 7.37891 14.6685 7.37891 15V18.75C7.37891 19.0815 7.5106 19.3995 7.74502 19.6339C7.97944 19.8683 8.29739 20 8.62891 20H12.3789C12.7104 20 13.0284 19.8683 13.2628 19.6339C13.4972 19.3995 13.6289 19.0815 13.6289 18.75V15C13.6289 14.6685 13.4972 14.3505 13.2628 14.1161C13.0284 13.8817 12.7104 13.75 12.3789 13.75ZM13.0039 18.75C13.0039 18.9158 12.9381 19.0747 12.8208 19.1919C12.7036 19.3092 12.5447 19.375 12.3789 19.375H8.62891C8.46315 19.375 8.30417 19.3092 8.18696 19.1919C8.06975 19.0747 8.00391 18.9158 8.00391 18.75V15C8.00391 14.8342 8.06975 14.6753 8.18696 14.5581C8.30417 14.4408 8.46315 14.375 8.62891 14.375H12.3789C12.5447 14.375 12.7036 14.4408 12.8208 14.5581C12.9381 14.6753 13.0039 14.8342 13.0039 15V18.75Z" fill="#8F95B2"/>
<path d="M10.0352 15H9.09766C8.97334 15 8.85411 15.0494 8.7662 15.1373C8.67829 15.2252 8.62891 15.3444 8.62891 15.4688V16.4062C8.62891 16.4477 8.64537 16.4874 8.67467 16.5167C8.70397 16.546 8.74372 16.5625 8.78516 16.5625C8.8266 16.5625 8.86634 16.546 8.89564 16.5167C8.92494 16.4874 8.94141 16.4477 8.94141 16.4062V15.4688C8.94141 15.4273 8.95787 15.3876 8.98717 15.3583C9.01647 15.329 9.05622 15.3125 9.09766 15.3125H10.0352C10.0766 15.3125 10.1163 15.296 10.1456 15.2667C10.1749 15.2374 10.1914 15.1977 10.1914 15.1562C10.1914 15.1148 10.1749 15.0751 10.1456 15.0458C10.1163 15.0165 10.0766 15 10.0352 15Z" fill="#8F95B2"/>
</svg>
