<svg width="20" height="20" viewBox="0 0 20 20" fill="none" xmlns="http://www.w3.org/2000/svg">
<path d="M16.25 4.58203L15.7336 12.9363C15.6016 15.0707 15.5356 16.138 15.0006 16.9052C14.7361 17.2846 14.3955 17.6048 14.0006 17.8454C13.2018 18.332 12.1325 18.332 9.99395 18.332C7.8526 18.332 6.78192 18.332 5.98254 17.8445C5.58733 17.6034 5.24666 17.2827 4.98224 16.9027C4.4474 16.1342 4.38288 15.0655 4.25384 12.928L3.75 4.58203" stroke="#2E22B9" stroke-width="1.5" stroke-linecap="round"/>
<path d="M17.5 4.58203H2.5" stroke="#2E22B9" stroke-width="1.5" stroke-linecap="round"/>
<path opacity="0.4" d="M7.5 9.77734H12.5" stroke="#2E22B9" stroke-width="1.5" stroke-linecap="round"/>
<path d="M13.3812 4.58268L12.8123 3.40912C12.4344 2.62956 12.2454 2.23978 11.9195 1.99669C11.8472 1.94277 11.7706 1.8948 11.6906 1.85327C11.3296 1.66602 10.8965 1.66602 10.0302 1.66602C9.14208 1.66602 8.69804 1.66602 8.33112 1.86112C8.2498 1.90436 8.17221 1.95426 8.09913 2.01032C7.76942 2.26327 7.58525 2.66731 7.21689 3.4754L6.71216 4.58268" stroke="#2E22B9" stroke-width="1.5" stroke-linecap="round"/>
<path opacity="0.4" d="M8.75 13.0449H11.25" stroke="#2E22B9" stroke-width="1.5" stroke-linecap="round"/>
</svg>
