<svg width="18" height="21" viewBox="0 0 18 21" fill="none" xmlns="http://www.w3.org/2000/svg">
<path d="M16.9188 12.8367C16.2581 11.0088 14.7107 7.68586 11.703 5.53155C11.8082 5.30004 11.8254 5.03805 11.7512 4.79479C11.677 4.55153 11.5165 4.34373 11.2999 4.21041L12.0724 1.43221C12.1035 1.3203 12.1029 1.20195 12.0707 1.09035C12.0385 0.978749 11.9759 0.878273 11.89 0.800111C11.8041 0.721948 11.6982 0.669167 11.584 0.647644C11.4699 0.626121 11.352 0.636702 11.2435 0.678207L9.72395 1.25944C9.47497 1.35367 9.20972 1.39737 8.94367 1.388C8.67762 1.37863 8.4161 1.31637 8.17437 1.20486L6.45273 0.402412C6.34023 0.350021 6.21473 0.332163 6.09208 0.351097C5.96944 0.370031 5.85516 0.424905 5.7637 0.508783C5.67224 0.59266 5.6077 0.701774 5.57825 0.822327C5.5488 0.94288 5.55575 1.06946 5.59824 1.18606L6.70611 4.22017C6.51205 4.34408 6.36477 4.52909 6.28754 4.746C6.2103 4.96291 6.20751 5.19937 6.27959 5.41805C4.74013 6.72907 0.776704 10.5522 0.743088 15.1403C0.705033 15.7661 0.791891 16.3932 0.998603 16.9851C1.20531 17.577 1.52775 18.1218 1.94712 18.5879C3.04162 19.8389 5.18942 20.4386 7.45181 20.3316H11.6849C12.7276 20.3423 13.7576 20.1019 14.6879 19.6307C16.9044 18.5763 18.0686 15.8339 16.9181 12.8367H16.9188ZM7.26855 5.41949C7.18323 5.41949 7.1014 5.3856 7.04107 5.32527C6.98074 5.26494 6.94685 5.18311 6.94685 5.09779C6.94685 5.01247 6.98074 4.93065 7.04107 4.87032C7.1014 4.80999 7.18323 4.77609 7.26855 4.77609H10.7552C10.8405 4.77609 10.9223 4.80999 10.9827 4.87032C11.043 4.93065 11.0769 5.01247 11.0769 5.09779C11.0769 5.18311 11.043 5.26494 10.9827 5.32527C10.9223 5.3856 10.8405 5.41949 10.7552 5.41949H7.26855ZM7.86857 1.85982C8.19825 2.01195 8.55492 2.09691 8.91778 2.10976C9.28064 2.1226 9.64242 2.06308 9.98204 1.93465L11.3252 1.42065L10.5933 4.05281H9.91842L10.3912 2.83721C10.422 2.74878 10.4173 2.65185 10.378 2.56683C10.3388 2.48182 10.2681 2.41535 10.1808 2.38143C10.0935 2.34751 9.99647 2.34879 9.91011 2.38499C9.82375 2.42119 9.75481 2.4895 9.71781 2.57552L9.14309 4.05281H8.94862C8.83874 3.78352 8.39703 2.70022 8.34064 2.56359C8.30164 2.47727 8.23031 2.40971 8.142 2.37544C8.05369 2.34117 7.95546 2.34294 7.86844 2.38037C7.78143 2.41779 7.71257 2.48787 7.6767 2.57554C7.64083 2.66321 7.64081 2.76146 7.67664 2.84914C7.7117 2.93409 8.07135 3.81786 8.1675 4.05281H7.41494L6.35658 1.15497L7.86857 1.85982ZM14.3535 18.9906C13.5265 19.4075 12.6114 19.6195 11.6852 19.6087L7.43988 19.6094C5.15364 19.6795 3.48766 19.1782 2.48425 18.1039C1.77552 17.3069 1.40908 16.2629 1.4642 15.1977C1.46637 10.9217 5.23388 7.25644 6.72636 5.98663C6.88911 6.08794 7.07683 6.14201 7.26855 6.14278H7.66579L7.36217 6.60906C7.31298 6.68937 7.29707 6.7857 7.31783 6.87756C7.33859 6.96941 7.39438 7.04954 7.47333 7.10088C7.55228 7.15223 7.64814 7.17073 7.74053 7.15246C7.83291 7.13419 7.91452 7.08058 7.96798 7.00306L8.52752 6.14278H9.52732L10.0796 7.00161C10.1315 7.08223 10.2133 7.13895 10.3069 7.15928C10.4006 7.17962 10.4985 7.16191 10.5792 7.11005C10.9797 6.83245 10.5405 6.41966 10.3865 6.14278C10.6556 6.17127 10.9277 6.13916 11.1828 6.0488C14.2093 8.16768 15.7242 11.6583 16.2389 13.0828C17.1101 15.3337 16.608 17.9018 14.3535 18.9906Z" fill="#8F95B2"/>
<path d="M9.05072 9.8423C6.30036 7.50148 2.71792 11.2545 5.19537 13.8975L8.35563 17.0574C8.54016 17.2416 8.7902 17.345 9.0509 17.345C9.3116 17.345 9.56164 17.2416 9.74617 17.0574L12.7557 14.0501C13.0591 13.7836 13.3024 13.4557 13.4696 13.0881C13.6367 12.7205 13.7238 12.3216 13.7251 11.9178C13.7631 9.52313 10.793 8.22476 9.05072 9.8423ZM12.3932 13.3882L9.23506 16.5463C9.21086 16.5705 9.18212 16.5898 9.15049 16.6029C9.11886 16.616 9.08496 16.6227 9.05072 16.6227C9.01648 16.6227 8.98258 16.616 8.95095 16.6029C8.91931 16.5898 8.89058 16.5705 8.86637 16.5463L5.70648 13.3864C3.75531 11.2567 6.86496 8.45754 8.79553 10.6046C9.03951 10.8313 9.28458 10.6596 9.46062 10.4503C11.466 8.57429 14.2764 11.3904 12.3932 13.3882Z" fill="#8F95B2"/>
</svg>
