<svg width="20" height="20" viewBox="0 0 20 20" fill="none" xmlns="http://www.w3.org/2000/svg">
<path opacity="0.4" fill-rule="evenodd" clip-rule="evenodd" d="M5.00008 2.29102C3.50431 2.29102 2.29175 3.50358 2.29175 4.99935V14.9993C2.29175 16.4951 3.50431 17.7077 5.00008 17.7077H15.0001C16.4959 17.7077 17.7084 16.4951 17.7084 14.9993V9.99935C17.7084 9.65417 17.9882 9.37435 18.3334 9.37435C18.6786 9.37435 18.9584 9.65417 18.9584 9.99935V14.9993C18.9584 17.1855 17.1862 18.9577 15.0001 18.9577H5.00008C2.81395 18.9577 1.04175 17.1855 1.04175 14.9993V4.99935C1.04175 2.81322 2.81395 1.04102 5.00008 1.04102H10.0001C10.3453 1.04102 10.6251 1.32084 10.6251 1.66602C10.6251 2.01119 10.3453 2.29102 10.0001 2.29102H5.00008Z" fill="#F4C430"/>
<path d="M13.4583 2.75L17.2499 6.54167" stroke="#F4C430" stroke-width="1.5" stroke-linejoin="round"/>
<path d="M14.0399 2.6873C14.4436 2.24998 14.6454 2.03131 14.8598 1.90377C15.3773 1.59601 16.0145 1.58644 16.5406 1.87852C16.7586 1.99957 16.9667 2.21208 17.3827 2.63709C17.7988 3.06211 18.0068 3.27462 18.1253 3.49735C18.4112 4.03479 18.4019 4.68569 18.1006 5.21431C17.9757 5.43339 17.7617 5.63956 17.3336 6.0519L12.2399 10.9579C11.4286 11.7393 11.023 12.13 10.516 12.328C10.0091 12.5261 9.45173 12.5115 8.33707 12.4823L8.18541 12.4784C7.84607 12.4695 7.6764 12.4651 7.57778 12.3531C7.47915 12.2412 7.49261 12.0684 7.51954 11.7227L7.53417 11.535C7.60996 10.5621 7.64786 10.0757 7.83784 9.63838C8.02782 9.20111 8.35553 8.84606 9.01094 8.13595L14.0399 2.6873Z" stroke="#F4C430" stroke-width="1.5" stroke-linejoin="round"/>
</svg>
