<svg width="24" height="24" viewBox="0 0 24 24" fill="none" xmlns="http://www.w3.org/2000/svg">
<g clip-path="url(#clip0_41_22250)">
<path fill-rule="evenodd" clip-rule="evenodd" d="M5.106 19.9552L6.1665 18.894C6.459 18.6015 6.459 18.126 6.1665 17.8335C5.874 17.541 5.3985 17.541 5.106 17.8335L4.04475 18.894C3.75225 19.1873 3.75225 19.662 4.04475 19.9552C4.338 20.2477 4.81275 20.2477 5.106 19.9552ZM19.9552 18.894L18.894 17.8335C18.6015 17.541 18.126 17.541 17.8335 17.8335C17.541 18.126 17.541 18.6015 17.8335 18.894L18.894 19.9552C19.1873 20.2477 19.662 20.2477 19.9552 19.9552C20.2477 19.662 20.2477 19.1873 19.9552 18.894ZM12 15C12.414 15 12.75 15.336 12.75 15.75C12.75 16.164 12.414 16.5 12 16.5C11.586 16.5 11.25 16.164 11.25 15.75C11.25 15.336 11.586 15 12 15ZM11.25 11.25C11.25 10.836 11.586 10.5 12 10.5C12.414 10.5 12.75 10.836 12.75 11.25C12.75 11.664 12.414 12 12 12C11.586 12 11.25 12.336 11.25 12.75V13.5C11.25 13.914 11.586 14.25 12 14.25C12.414 14.25 12.75 13.914 12.75 13.5V13.3717C13.6237 13.0628 14.25 12.2288 14.25 11.25C14.25 10.008 13.242 9 12 9C10.758 9 9.75 10.008 9.75 11.25C9.75 11.664 10.086 12 10.5 12C10.914 12 11.25 11.664 11.25 11.25ZM1.5 12.75H3C3.414 12.75 3.75 12.414 3.75 12C3.75 11.586 3.414 11.25 3 11.25H1.5C1.086 11.25 0.75 11.586 0.75 12C0.75 12.414 1.086 12.75 1.5 12.75ZM21 12.75H22.5C22.914 12.75 23.25 12.414 23.25 12C23.25 11.586 22.914 11.25 22.5 11.25H21C20.586 11.25 20.25 11.586 20.25 12C20.25 12.414 20.586 12.75 21 12.75ZM18.894 6.1665L19.9552 5.106C20.2477 4.81275 20.2477 4.338 19.9552 4.04475C19.662 3.75225 19.1873 3.75225 18.894 4.04475L17.8335 5.106C17.541 5.3985 17.541 5.874 17.8335 6.1665C18.126 6.459 18.6015 6.459 18.894 6.1665ZM6.1665 5.106L5.106 4.04475C4.81275 3.75225 4.338 3.75225 4.04475 4.04475C3.75225 4.338 3.75225 4.81275 4.04475 5.106L5.106 6.1665C5.3985 6.459 5.874 6.459 6.1665 6.1665C6.459 5.874 6.459 5.3985 6.1665 5.106ZM12.75 3V1.5C12.75 1.086 12.414 0.75 12 0.75C11.586 0.75 11.25 1.086 11.25 1.5V3C11.25 3.414 11.586 3.75 12 3.75C12.414 3.75 12.75 3.414 12.75 3Z" fill="#8F95B2"/>
<path fill-rule="evenodd" clip-rule="evenodd" d="M9 18.483C9 18.483 9 19.8623 9 20.25C9 21.0457 9.31575 21.8085 9.879 22.371C10.4415 22.9342 11.2042 23.25 12 23.25C12.7958 23.25 13.5585 22.9342 14.121 22.371C14.6842 21.8085 15 21.0457 15 20.25C15 19.8623 15 18.9908 15.0105 18.4988C15.0112 18.4935 15.0112 18.4882 15.0112 18.4823C15.0112 18.2175 15.153 17.973 15.3825 17.841C15.384 17.8403 15.3855 17.8395 15.387 17.8387C17.397 16.6695 18.75 14.4915 18.75 12C18.75 8.27475 15.7253 5.25 12 5.25C8.27475 5.25 5.25 8.27475 5.25 12C5.25 14.493 6.6045 16.6725 8.622 17.8312C8.622 17.832 8.62275 17.832 8.62275 17.832C8.856 17.9655 9 18.2137 9 18.483ZM13.5 20.25C13.5 20.6475 13.3417 21.0292 13.0605 21.3105C12.7792 21.5917 12.3975 21.75 12 21.75C11.6025 21.75 11.2208 21.5917 10.9395 21.3105C10.6583 21.0292 10.5 20.6475 10.5 20.25H13.5ZM10.5 18.4823C10.5 17.676 10.068 16.9313 9.36825 16.5308C7.8015 15.63 6.75 13.9373 6.75 12C6.75 9.10275 9.10275 6.75 12 6.75C14.8973 6.75 17.25 9.10275 17.25 12C17.25 13.9388 16.197 15.633 14.6325 16.542C13.9403 16.9388 13.5112 17.6797 13.5112 18.4823C13.509 18.5655 13.5075 18.6593 13.506 18.75H10.5V18.4823Z" fill="#8F95B2"/>
</g>
<defs>
<clipPath id="clip0_41_22250">
<rect width="24" height="24" fill="white"/>
</clipPath>
</defs>
</svg>
