<svg width="21" height="19" viewBox="0 0 21 19" fill="none" xmlns="http://www.w3.org/2000/svg">
<path d="M17.0194 18.1396H3.99618C3.07139 18.1383 2.18482 17.7704 1.53089 17.1165C0.876962 16.4625 0.509043 15.576 0.507812 14.6512V3.48839C0.509043 2.5636 0.876962 1.67703 1.53089 1.0231C2.18482 0.36917 3.07139 0.00125126 3.99618 2.06534e-05H6.9227C7.57099 -0.00221609 8.20694 0.177267 8.75841 0.518113C9.30988 0.858958 9.7548 1.34752 10.0427 1.92839L10.3608 2.56374C10.5336 2.9122 10.8005 3.2053 11.1313 3.40983C11.4621 3.61436 11.8435 3.72214 12.2325 3.72095H17.0194C17.9442 3.72218 18.8308 4.0901 19.4847 4.74403C20.1387 5.39796 20.5066 6.28453 20.5078 7.20932V14.6512C20.5066 15.576 20.1387 16.4625 19.4847 17.1165C18.8308 17.7704 17.9442 18.1383 17.0194 18.1396ZM3.99618 1.39537C3.44131 1.39611 2.90937 1.61686 2.51701 2.00922C2.12465 2.40158 1.9039 2.93352 1.90316 3.48839V14.6512C1.9039 15.2061 2.12465 15.738 2.51701 16.1304C2.90937 16.5227 3.44131 16.7435 3.99618 16.7442H17.0194C17.5743 16.7435 18.1063 16.5227 18.4986 16.1304C18.891 15.738 19.1117 15.2061 19.1125 14.6512V7.20932C19.1117 6.65445 18.891 6.12251 18.4986 5.73015C18.1063 5.33779 17.5743 5.11704 17.0194 5.1163H12.2325C11.5842 5.11854 10.9482 4.93905 10.3967 4.59821C9.84528 4.25736 9.40036 3.7688 9.11246 3.18793L8.79432 2.55258C8.62159 2.20412 8.35469 1.91102 8.02389 1.70649C7.6931 1.50196 7.31162 1.39418 6.9227 1.39537H3.99618Z" fill="#8F95B2"/>
<path d="M8.64907 10.7H4.92814C4.74311 10.7 4.56565 10.6265 4.43481 10.4957C4.30397 10.3649 4.23047 10.1874 4.23047 10.0024C4.23047 9.81733 4.30397 9.63987 4.43481 9.50903C4.56565 9.37819 4.74311 9.30469 4.92814 9.30469H8.64907C8.83411 9.30469 9.01156 9.37819 9.1424 9.50903C9.27324 9.63987 9.34675 9.81733 9.34675 10.0024C9.34675 10.1874 9.27324 10.3649 9.1424 10.4957C9.01156 10.6265 8.83411 10.7 8.64907 10.7ZM7.71884 13.4907H4.92814C4.74311 13.4907 4.56565 13.4172 4.43481 13.2864C4.30397 13.1556 4.23047 12.9781 4.23047 12.7931C4.23047 12.608 4.30397 12.4306 4.43481 12.2997C4.56565 12.1689 4.74311 12.0954 4.92814 12.0954H7.71884C7.90388 12.0954 8.08133 12.1689 8.21217 12.2997C8.34301 12.4306 8.41652 12.608 8.41652 12.7931C8.41652 12.9781 8.34301 13.1556 8.21217 13.2864C8.08133 13.4172 7.90388 13.4907 7.71884 13.4907Z" fill="#8F95B2"/>
</svg>
