<svg width="24" height="24" viewBox="0 0 24 24" fill="none" xmlns="http://www.w3.org/2000/svg">
<path d="M8.62492 16.8496V18.7508H9.93742C10.1861 18.7508 10.4245 18.8496 10.6003 19.0254C10.7762 19.2012 10.8749 19.4397 10.8749 19.6883C10.8749 19.937 10.7762 20.1754 10.6003 20.3512C10.4245 20.5271 10.1861 20.6258 9.93742 20.6258H8.62492V21.1883C8.62492 21.437 8.52615 21.6754 8.35034 21.8512C8.17452 22.0271 7.93606 22.1258 7.68742 22.1258C7.43878 22.1258 7.20032 22.0271 7.02451 21.8512C6.84869 21.6754 6.74992 21.437 6.74992 21.1883V20.6258H5.81242C5.56378 20.6258 5.32532 20.5271 5.14951 20.3512C4.97369 20.1754 4.87492 19.937 4.87492 19.6883C4.87492 19.4397 4.97369 19.2012 5.14951 19.0254C5.32532 18.8496 5.56378 18.7508 5.81242 18.7508H6.74992V16.7333C5.88064 16.544 5.06239 16.1695 4.35099 15.6353C3.63958 15.1011 3.05174 14.4198 2.62754 13.6377C2.20335 12.8557 1.95278 11.9914 1.89293 11.1038C1.83307 10.2162 1.96533 9.32605 2.2807 8.49416C2.59606 7.66228 3.08711 6.90819 3.72036 6.2833C4.3536 5.65841 5.11416 5.17743 5.95016 4.87315C6.78616 4.56887 7.67795 4.44845 8.56471 4.5201C9.45148 4.59175 10.3124 4.85378 11.0887 5.28833C10.3633 5.56822 9.69676 5.98161 9.12367 6.50708C8.53126 6.35748 7.91382 6.33549 7.31226 6.44254C6.71071 6.54959 6.13877 6.78325 5.63433 7.12804C5.1299 7.47283 4.70449 7.92087 4.38629 8.44248C4.06809 8.96409 3.86437 9.54737 3.78861 10.1537C3.71286 10.76 3.76681 11.3754 3.94688 11.9593C4.12696 12.5432 4.42905 13.0821 4.83314 13.5404C5.23723 13.9987 5.7341 14.3659 6.29082 14.6177C6.84754 14.8695 7.45141 15.0001 8.06242 15.0008C8.21532 15.0015 8.36811 14.9928 8.51992 14.9746C9.20823 14.904 9.86875 14.6658 10.4437 14.2808C10.9937 13.9167 11.4527 13.4311 11.7855 12.8616C12.1182 12.292 12.3157 11.6537 12.3628 10.9958C12.4099 10.3378 12.3053 9.67786 12.0571 9.06672C11.8089 8.45558 11.4237 7.90959 10.9312 7.47083C11.5061 7.08585 12.1666 6.84766 12.8549 6.77708C13.853 7.99932 14.3464 9.55671 14.2341 11.1307C14.1219 12.7047 13.4125 14.1763 12.2512 15.2446C11.6781 15.7701 11.0116 16.1834 10.2862 16.4633C9.75311 16.6688 9.19395 16.7988 8.62492 16.8496Z" fill="#5CD9FF"/>
<path opacity="0.2" d="M22.1249 2.81269V6.93769C22.1249 7.18633 22.0261 7.42479 21.8503 7.6006C21.6745 7.77642 21.436 7.87519 21.1874 7.87519C20.9387 7.87519 20.7003 7.77642 20.5245 7.6006C20.3487 7.42479 20.2499 7.18633 20.2499 6.93769V5.06269L18.1386 7.17394C19.0451 8.29376 19.5327 9.69465 19.5173 11.1353C19.502 12.5759 18.9847 13.9661 18.0545 15.0664C17.1244 16.1666 15.8397 16.9081 14.4217 17.1629C13.0037 17.4178 11.5412 17.1702 10.2861 16.4627C11.0115 16.1828 11.678 15.7694 12.2511 15.2439C12.8435 15.3935 13.461 15.4155 14.0625 15.3085C14.6641 15.2014 15.236 14.9678 15.7405 14.623C16.2449 14.2782 16.6703 13.8301 16.9885 13.3085C17.3067 12.7869 17.5104 12.2036 17.5862 11.5974C17.6619 10.9911 17.608 10.3756 17.4279 9.79172C17.2478 9.20785 16.9458 8.66891 16.5417 8.21061C16.1376 7.7523 15.6407 7.3851 15.084 7.13333C14.5273 6.88155 13.9234 6.75096 13.3124 6.75019C13.1595 6.74947 13.0067 6.75824 12.8549 6.77644C12.1666 6.84702 11.5061 7.08522 10.9311 7.47019C10.3811 7.83432 9.92207 8.31987 9.58933 8.88942C9.2566 9.45897 9.05907 10.0973 9.01197 10.7553C8.96487 11.4132 9.06946 12.0732 9.31767 12.6843C9.56589 13.2954 9.9511 13.8414 10.4436 14.2802C9.86871 14.6652 9.20819 14.9034 8.51988 14.9739C7.52182 13.7517 7.02845 12.1943 7.14068 10.6203C7.25291 9.04634 7.96226 7.57471 9.12363 6.50644C10.1462 5.56826 11.4539 5.00033 12.8375 4.89359C14.2211 4.78684 15.6005 5.14746 16.7549 5.91769L18.9224 3.75019H17.0474C16.7987 3.75019 16.5603 3.65142 16.3845 3.4756C16.2087 3.29979 16.1099 3.06133 16.1099 2.81269C16.1099 2.56405 16.2087 2.32559 16.3845 2.14978C16.5603 1.97396 16.7987 1.87519 17.0474 1.87519H21.1724C21.2969 1.87269 21.4206 1.89512 21.5363 1.94115C21.6521 1.98719 21.7574 2.05591 21.8461 2.14327C21.9349 2.23063 22.0053 2.33485 22.0531 2.44982C22.101 2.56478 22.1254 2.68816 22.1249 2.81269Z" fill="#5CD9FF"/>
</svg>
