<svg width="24" height="24" viewBox="0 0 24 24" fill="none" xmlns="http://www.w3.org/2000/svg">
<path opacity="0.4" d="M12 22C17.5228 22 22 17.5228 22 12C22 8.44283 20.1427 5.31946 17.3449 3.54675C15.7989 2.56715 13.9657 2 12 2C6.85272 2 2.61375 5.88894 2.06103 10.8889C2.0207 11.2537 2 11.6244 2 12C2 15.1414 3.44852 17.9445 5.71407 19.7778C7.43155 21.1676 9.61856 22 12 22Z" fill="#1BD777"/>
<path d="M18.6667 16.4446C17.4394 16.4446 16.4444 15.4497 16.4444 14.2224C16.4444 12.9951 15.4495 12.0001 14.2222 12.0001C12.9949 12.0001 12 11.0052 12 9.77791C12 8.55061 12.9949 7.55568 14.2222 7.55568C15.4495 7.55568 16.4444 6.56076 16.4444 5.33346C16.4444 4.60124 16.7986 3.95173 17.3449 3.54688C20.1427 5.31959 22 8.44296 22 12.0001C22 13.5966 21.6259 15.1057 20.9605 16.4446H18.6667Z" fill="#1BD777"/>
<path d="M4.22222 10.889C5.44952 10.889 6.44445 11.8839 6.44445 13.1112C6.44445 14.3385 7.43937 15.3335 8.66667 15.3335C9.89397 15.3335 10.8889 16.3284 10.8889 17.5557C10.8889 18.783 9.89397 19.7779 8.66667 19.7779L5.71407 19.7779C3.44852 17.9446 2 15.1415 2 12.0001C2 11.6246 2.0207 11.2538 2.06103 10.889H4.22222Z" fill="#1BD777"/>
</svg>
