<svg width="24" height="24" viewBox="0 0 24 24" fill="none" xmlns="http://www.w3.org/2000/svg">
<path d="M19.8604 13.1479H4.13841C3.9409 13.1479 3.78125 12.9883 3.78125 12.7907C3.78125 12.5932 3.9409 12.4336 4.13841 12.4336H19.8604C20.0579 12.4336 20.2176 12.5932 20.2176 12.7907C20.2176 12.9883 20.0579 13.1479 19.8604 13.1479Z" fill="#8F95B2"/>
<path d="M19.8604 12.0737H4.13841C3.9409 12.0737 3.78125 11.914 3.78125 11.7165C3.78125 11.519 3.9409 11.3594 4.13841 11.3594H19.8604C20.0579 11.3594 20.2176 11.519 20.2176 11.7165C20.2176 11.914 20.0579 12.0737 19.8604 12.0737Z" fill="#8F95B2"/>
<path d="M16.2844 14.2182H7.71262C7.51512 14.2182 7.35547 14.0586 7.35547 13.8611C7.35547 13.6636 7.51512 13.5039 7.71262 13.5039H16.2844C16.4819 13.5039 16.6415 13.6636 16.6415 13.8611C16.6415 14.0586 16.4819 14.2182 16.2844 14.2182Z" fill="#8F95B2"/>
<path d="M21.6428 18.5044H2.35716C2.15965 18.5044 2 18.3447 2 18.1472V6.35716C2 6.15965 2.15965 6 2.35716 6H21.6428C21.8404 6 22 6.15965 22 6.35716V18.1472C22 18.3444 21.8404 18.5044 21.6428 18.5044ZM2.71431 17.7901H21.2857V6.71431H2.71431V17.7901Z" fill="#8F95B2"/>
<path d="M11.9989 10.6424C11.211 10.6424 10.5703 10.0017 10.5703 9.21378C10.5703 8.42589 11.211 7.78516 11.9989 7.78516C12.7868 7.78516 13.4276 8.42589 13.4276 9.21378C13.4276 10.0017 12.7868 10.6424 11.9989 10.6424ZM11.9989 8.49947C11.605 8.49947 11.2846 8.81984 11.2846 9.21378C11.2846 9.60772 11.605 9.92809 11.9989 9.92809C12.3929 9.92809 12.7132 9.60772 12.7132 9.21378C12.7132 8.81984 12.3929 8.49947 11.9989 8.49947Z" fill="#8F95B2"/>
<path d="M13.6053 16.7155H10.3923C10.1948 16.7155 10.0352 16.5558 10.0352 16.3583C10.0352 16.1608 10.1948 16.0012 10.3923 16.0012H13.6053C13.8028 16.0012 13.9624 16.1608 13.9624 16.3583C13.9624 16.5558 13.8028 16.7155 13.6053 16.7155ZM13.6053 15.644H10.3923C10.1948 15.644 10.0352 15.4844 10.0352 15.2868C10.0352 15.0893 10.1948 14.9297 10.3923 14.9297H13.6053C13.8028 14.9297 13.9624 15.0893 13.9624 15.2868C13.9624 15.4844 13.8028 15.644 13.6053 15.644Z" fill="#8F95B2"/>
<path d="M10.3929 16.7155C9.90037 16.7155 9.5 16.3151 9.5 15.8226C9.5 15.3301 9.90037 14.9297 10.3929 14.9297C10.5904 14.9297 10.75 15.0893 10.75 15.2868C10.75 15.4844 10.5904 15.644 10.3929 15.644C10.2947 15.644 10.2143 15.7244 10.2143 15.8226C10.2143 15.9208 10.2947 16.0012 10.3929 16.0012C10.5904 16.0012 10.75 16.1608 10.75 16.3583C10.75 16.5558 10.5904 16.7155 10.3929 16.7155ZM13.6059 16.7155C13.4084 16.7155 13.2487 16.5558 13.2487 16.3583C13.2487 16.1608 13.4084 16.0012 13.6059 16.0012C13.7041 16.0012 13.7844 15.9208 13.7844 15.8226C13.7844 15.7244 13.7041 15.644 13.6059 15.644C13.4084 15.644 13.2487 15.4844 13.2487 15.2868C13.2487 15.0893 13.4084 14.9297 13.6059 14.9297C14.0984 14.9297 14.4987 15.3301 14.4987 15.8226C14.4987 16.3151 14.0984 16.7155 13.6059 16.7155Z" fill="#8F95B2"/>
</svg>
