<svg width="21" height="20" viewBox="0 0 21 20" fill="none" xmlns="http://www.w3.org/2000/svg">
<path d="M7.50781 8.00049H10.0078C10.2839 8.00049 10.5078 7.77661 10.5078 7.50049C10.5078 7.22437 10.2839 7.00049 10.0078 7.00049H8.50781V6.00049C8.50781 5.72437 8.28394 5.50049 8.00781 5.50049C7.73169 5.50049 7.50781 5.72437 7.50781 6.00049V7.00049C6.40326 7.00049 5.50781 7.89594 5.50781 9.00049C5.50781 10.105 6.40326 11.0005 7.50781 11.0005H8.50781C9.06012 11.0005 9.50781 11.4482 9.50781 12.0005C9.50781 12.5528 9.06012 13.0005 8.50781 13.0005H6.00781C5.73169 13.0005 5.50781 13.2244 5.50781 13.5005C5.50781 13.7766 5.73169 14.0005 6.00781 14.0005H7.50781V15.001C7.508 15.277 7.73181 15.5007 8.00781 15.5005C8.28375 15.5003 8.508 15.2765 8.50781 15.0005V14.0005C9.61237 14.0005 10.5078 13.105 10.5078 12.0005C10.5078 10.8959 9.61237 10.0005 8.50781 10.0005H7.50781C6.95551 10.0005 6.50781 9.5528 6.50781 9.00049C6.50781 8.44818 6.95551 8.00049 7.50781 8.00049ZM20.0078 10.0005H15.5078V0.500488C15.5079 0.412964 15.4849 0.326965 15.4413 0.251099C15.3037 0.0117798 14.9982 -0.0706787 14.7588 0.0668945L11.5128 1.92725L8.25592 0.065918C8.10223 -0.0219726 7.91351 -0.0219726 7.75983 0.065918L4.50293 1.92725L1.25684 0.0668945C1.18097 0.0232544 1.09497 0.000366194 1.00745 0.000366194C0.731384 0.000549294 0.50769 0.224426 0.507813 0.500488V17.5005C0.509094 18.8807 1.62762 19.9992 3.00781 20.0005H17.5078C19.1639 19.9987 20.506 18.6566 20.5078 17.0005V10.4999C20.5076 10.2239 20.2838 10.0003 20.0078 10.0005ZM3.00781 19.0005C2.17975 18.9996 1.50873 18.3286 1.50781 17.5005V1.36279L4.24902 2.93408C4.40662 3.0213 4.5979 3.02167 4.75586 2.93506L8.00781 1.07666L11.2598 2.93506C11.4177 3.02167 11.609 3.0213 11.7666 2.93408L14.5078 1.36279V17.0005C14.5087 17.7724 14.8089 18.4689 15.2881 19.0005H3.00781ZM19.5078 17.0005C19.5078 18.105 18.6124 19.0005 17.5078 19.0005C16.4033 19.0005 15.5078 18.105 15.5078 17.0005V11.0005H19.5078V17.0005Z" fill="#8F95B2"/>
</svg>
