<svg width="20" height="20" viewBox="0 0 20 20" fill="none" xmlns="http://www.w3.org/2000/svg">
<g clip-path="url(#clip0_95_17016)">
<path d="M5.85201 14.1474C5.89737 15.5809 6.05339 16.4601 6.59005 17.114C6.72856 17.2828 6.88332 17.4375 7.0521 17.5761C7.97406 18.3327 9.34385 18.3327 12.0834 18.3327C14.823 18.3327 16.1928 18.3327 17.1147 17.5761C17.2835 17.4375 17.4383 17.2828 17.5768 17.114C18.3334 16.192 18.3334 14.8223 18.3334 12.0827C18.3334 9.34311 18.3334 7.97333 17.5768 7.05137C17.4383 6.88259 17.2835 6.72783 17.1147 6.58931C16.4636 6.05498 15.5892 5.89799 14.1667 5.85187M5.85201 14.1474C4.41856 14.1021 3.53935 13.946 2.88544 13.4094C2.71666 13.2709 2.56189 13.1161 2.42338 12.9473C1.66675 12.0254 1.66675 10.6556 1.66675 7.91602C1.66675 5.17645 1.66675 3.80666 2.42338 2.8847C2.56189 2.71592 2.71666 2.56116 2.88544 2.42265C3.8074 1.66602 5.17718 1.66602 7.91675 1.66602C10.6563 1.66602 12.0261 1.66602 12.9481 2.42265C13.1168 2.56116 13.2716 2.71592 13.4101 2.8847C13.9468 3.53862 14.1028 4.41783 14.1482 5.85128C14.1482 5.85128 14.1482 5.85128 14.1667 5.85187M5.85201 14.1474L14.1667 5.85187" stroke="#643D40" stroke-width="1.5"/>
<path opacity="0.4" d="M15.6223 10.834H14.5281C14.383 10.834 14.2439 10.8916 14.1413 10.9942C14.0387 11.0968 13.9811 11.236 13.9811 11.381C13.9811 11.5261 14.0387 11.6653 14.1413 11.7679C14.2439 11.8705 14.383 11.9281 14.5281 11.9281V13.0222H13.8804C13.9452 12.847 13.9793 12.6619 13.9811 12.4752C13.9811 12.1139 13.8618 11.7627 13.6419 11.4761C13.422 11.1895 13.1136 10.9835 12.7647 10.89C12.4157 10.7965 12.0457 10.8207 11.7119 10.959C11.3781 11.0972 11.0993 11.3417 10.9186 11.6546C10.8791 11.7168 10.8525 11.7865 10.8405 11.8593C10.8285 11.9321 10.8314 12.0065 10.849 12.0782C10.8665 12.1499 10.8984 12.2172 10.9426 12.2763C10.9869 12.3353 11.0427 12.3848 11.1065 12.4217C11.1704 12.4586 11.2411 12.4822 11.3143 12.4911C11.3876 12.5 11.4619 12.494 11.5327 12.4735C11.6036 12.4529 11.6696 12.4182 11.7267 12.3715C11.7838 12.3248 11.8309 12.267 11.8651 12.2016C11.913 12.1185 11.9821 12.0495 12.0652 12.0015C12.1483 11.9535 12.2426 11.9282 12.3385 11.9281C12.4345 11.9281 12.5288 11.9533 12.612 12.0012C12.6952 12.0491 12.7642 12.1181 12.8123 12.2012C12.8604 12.2842 12.8858 12.3785 12.8859 12.4745C12.886 12.5705 12.8609 12.6648 12.813 12.748C12.7651 12.8312 12.6962 12.9003 12.6132 12.9485C12.5301 12.9966 12.4359 13.022 12.3399 13.0222C12.1948 13.0222 12.0557 13.0799 11.9531 13.1824C11.8505 13.285 11.7928 13.4242 11.7928 13.5693C11.7928 13.7144 11.8505 13.8535 11.9531 13.9561C12.0557 14.0587 12.1948 14.1163 12.3399 14.1163C12.4359 14.1164 12.5302 14.1418 12.6133 14.1899C12.6964 14.2379 12.7654 14.307 12.8133 14.3902C12.8613 14.4734 12.8865 14.5677 12.8864 14.6637C12.8864 14.7597 12.861 14.854 12.813 14.9372C12.765 15.0203 12.6959 15.0893 12.6127 15.1373C12.5296 15.1852 12.4352 15.2105 12.3392 15.2105C12.2432 15.2104 12.1489 15.1851 12.0658 15.1371C11.9826 15.0891 11.9136 15.0201 11.8656 14.9369C11.8314 14.8715 11.7843 14.8138 11.7272 14.7671C11.6701 14.7203 11.6041 14.6857 11.5333 14.6651C11.4624 14.6445 11.3881 14.6385 11.3149 14.6474C11.2416 14.6563 11.171 14.68 11.1071 14.7169C11.0432 14.7538 10.9875 14.8033 10.9432 14.8623C10.8989 14.9213 10.8671 14.9887 10.8495 15.0603C10.832 15.132 10.8291 15.2065 10.8411 15.2793C10.853 15.3521 10.8796 15.4217 10.9192 15.484C11.1 15.7966 11.3788 16.0408 11.7124 16.1789C12.0461 16.3169 12.416 16.3411 12.7647 16.2476C13.1135 16.1541 13.4217 15.9482 13.6416 15.6618C13.8615 15.3754 13.9809 15.0245 13.9811 14.6634C13.9793 14.4766 13.9452 14.2915 13.8804 14.1163H14.5281V15.7575C14.5281 15.9026 14.5858 16.0417 14.6884 16.1443C14.791 16.2469 14.9301 16.3046 15.0752 16.3046C15.2203 16.3046 15.3594 16.2469 15.462 16.1443C15.5646 16.0417 15.6223 15.9026 15.6223 15.7575V11.9281C15.7673 11.9281 15.9065 11.8705 16.0091 11.7679C16.1117 11.6653 16.1693 11.5261 16.1693 11.381C16.1693 11.236 16.1117 11.0968 16.0091 10.9942C15.9065 10.8916 15.7673 10.834 15.6223 10.834Z" fill="#643D40"/>
<path opacity="0.4" d="M5 5.98893L5 9.16602C5 9.30415 5.05487 9.43663 5.15255 9.5343C5.25022 9.63198 5.3827 9.68685 5.52083 9.68685C5.65897 9.68685 5.79144 9.63198 5.88912 9.5343C5.98679 9.43663 6.04167 9.30415 6.04167 9.16602V8.12435H7.60417V9.16602C7.60417 9.30415 7.65904 9.43663 7.75671 9.5343C7.85439 9.63198 7.98687 9.68685 8.125 9.68685C8.26313 9.68685 8.39561 9.63198 8.49328 9.5343C8.59096 9.43663 8.64583 9.30415 8.64583 9.16602V5.98893C8.64583 5.50546 8.45378 5.0418 8.11191 4.69994C7.77005 4.35807 7.30638 4.16602 6.82292 4.16602C6.33945 4.16602 5.87578 4.35807 5.53392 4.69994C5.19206 5.0418 5 5.50546 5 5.98893ZM6.82292 5.20768C7.03005 5.20791 7.22863 5.29029 7.37509 5.43675C7.52156 5.58322 7.60394 5.7818 7.60417 5.98893V7.08268H6.04167V5.98893C6.04189 5.7818 6.12428 5.58322 6.27074 5.43675C6.4172 5.29029 6.61579 5.20791 6.82292 5.20768Z" fill="#643D40"/>
</g>
<defs>
<clipPath id="clip0_95_17016">
<rect width="20" height="20" fill="white"/>
</clipPath>
</defs>
</svg>
