<svg width="24" height="24" viewBox="0 0 24 24" fill="none" xmlns="http://www.w3.org/2000/svg">
<g clip-path="url(#clip0_41_22167)">
<path d="M23.5 12C23.5 13 22.4 13.8 22.1 14.7C21.8 15.6 22.4 16.9 21.9 17.7C21.4 18.5 20 18.7 19.4 19.4C18.8 20.1 18.6 21.4 17.7 21.9C16.8 22.4 15.6 21.8 14.7 22.1C13.8 22.4 13 23.5 12 23.5C11 23.5 10.2 22.4 9.3 22.1C8.4 21.8 7.1 22.4 6.3 21.9C5.5 21.4 5.3 20 4.6 19.4C3.9 18.8 2.5 18.6 2 17.8C1.5 17 2.1 15.7 1.8 14.8C1.5 13.9 0.5 13 0.5 12C0.5 11 1.6 10.2 1.9 9.3C2.2 8.4 1.6 7.1 2 6.3C2.4 5.5 3.9 5.3 4.5 4.6C5.1 3.9 5.4 2.5 6.3 2C7.2 1.5 8.4 2.1 9.3 1.8C10.2 1.5 11 0.5 12 0.5C13 0.5 13.8 1.6 14.7 1.9C15.6 2.2 16.9 1.6 17.7 2.1C18.5 2.6 18.7 4 19.4 4.6C20.1 5.2 21.4 5.4 21.9 6.3C22.4 7.2 21.8 8.4 22.1 9.3C22.4 10.2 23.5 11 23.5 12Z" stroke="#8F95B2" stroke-linecap="round" stroke-linejoin="round"/>
<path d="M13.3984 13.3984L11.9984 14.7984L9.19844 11.9984L10.5984 10.5984M10.5984 13.3984L11.5984 12.3984M10.5984 16.1984L8.49844 14.0984C8.09844 13.6984 7.49844 13.6984 7.09844 14.0984L6.39844 14.7984L9.19844 17.5984M11.9984 9.19844L14.0984 11.2984C14.4984 11.6984 15.0984 11.6984 15.4984 11.2984C15.8984 10.8984 15.8984 10.2984 15.4984 9.89844M15.4984 9.89844L13.3984 7.79844M15.4984 9.89844C15.8984 10.2984 16.4984 10.2984 16.8984 9.89844C17.2984 9.49844 17.2984 8.89844 16.8984 8.49844L14.7984 6.39844" stroke="#8F95B2" stroke-linecap="round" stroke-linejoin="round"/>
</g>
<defs>
<clipPath id="clip0_41_22167">
<rect width="24" height="24" fill="white"/>
</clipPath>
</defs>
</svg>
