<svg width="20" height="20" viewBox="0 0 20 20" fill="none" xmlns="http://www.w3.org/2000/svg">
<path d="M2.10819 11.9944C1.93098 13.1219 2.72325 13.9045 3.6933 14.2945C7.41226 15.7898 12.5876 15.7898 16.3065 14.2945C17.2766 13.9045 18.0689 13.1219 17.8916 11.9944C17.7827 11.3015 17.2442 10.7245 16.8452 10.161C16.3227 9.41395 16.2707 8.59911 16.2706 7.73219C16.2706 4.38194 13.4631 1.66602 9.99992 1.66602C6.53669 1.66602 3.72919 4.38194 3.72919 7.73219C3.72911 8.59911 3.67719 9.41395 3.15459 10.161C2.75562 10.7245 2.2171 11.3015 2.10819 11.9944Z" stroke="#0E5DD8" stroke-width="1.5" stroke-linecap="round" stroke-linejoin="round"/>
<path opacity="0.4" d="M7.5 17.5C8.16345 18.0182 9.03956 18.3333 10 18.3333C10.9604 18.3333 11.8366 18.0182 12.5 17.5" stroke="#0E5DD8" stroke-width="1.5" stroke-linecap="round" stroke-linejoin="round"/>
</svg>
