<svg width="16" height="20" viewBox="0 0 16 20" fill="none" xmlns="http://www.w3.org/2000/svg">
<g clip-path="url(#clip0_41_22225)">
<path fill-rule="evenodd" clip-rule="evenodd" d="M0.588235 0C0.432226 0 0.282606 0.0619746 0.17229 0.17229C0.0619746 0.282606 0 0.432226 0 0.588235L0 19.4118C0 19.5678 0.0619746 19.7174 0.17229 19.8277C0.282606 19.938 0.432226 20 0.588235 20H14.7059C14.8619 20 15.0115 19.938 15.1218 19.8277C15.2321 19.7174 15.2941 19.5678 15.2941 19.4118V0.588235C15.2941 0.432226 15.2321 0.282606 15.1218 0.17229C15.0115 0.0619746 14.8619 0 14.7059 0L0.588235 0ZM14.1176 1.17647V18.8235H1.17647V1.17647H14.1176ZM11.4706 9.41177H3.82353C3.66752 9.41177 3.5179 9.47374 3.40758 9.58405C3.29727 9.69437 3.23529 9.84399 3.23529 10C3.23529 10.156 3.29727 10.3056 3.40758 10.4159C3.5179 10.5263 3.66752 10.5882 3.82353 10.5882H11.4706C11.6266 10.5882 11.7762 10.5263 11.8865 10.4159C11.9969 10.3056 12.0588 10.156 12.0588 10C12.0588 9.84399 11.9969 9.69437 11.8865 9.58405C11.7762 9.47374 11.6266 9.41177 11.4706 9.41177ZM11.4706 12.0588H3.82353C3.66752 12.0588 3.5179 12.1208 3.40758 12.2311C3.29727 12.3414 3.23529 12.491 3.23529 12.6471C3.23529 12.8031 3.29727 12.9527 3.40758 13.063C3.5179 13.1733 3.66752 13.2353 3.82353 13.2353H11.4706C11.6266 13.2353 11.7762 13.1733 11.8865 13.063C11.9969 12.9527 12.0588 12.8031 12.0588 12.6471C12.0588 12.491 11.9969 12.3414 11.8865 12.2311C11.7762 12.1208 11.6266 12.0588 11.4706 12.0588ZM11.4706 14.7059H3.82353C3.66752 14.7059 3.5179 14.7679 3.40758 14.8782C3.29727 14.9885 3.23529 15.1381 3.23529 15.2941C3.23529 15.4501 3.29727 15.5997 3.40758 15.7101C3.5179 15.8204 3.66752 15.8824 3.82353 15.8824H11.4706C11.6266 15.8824 11.7762 15.8204 11.8865 15.7101C11.9969 15.5997 12.0588 15.4501 12.0588 15.2941C12.0588 15.1381 11.9969 14.9885 11.8865 14.8782C11.7762 14.7679 11.6266 14.7059 11.4706 14.7059ZM5.60088 3.81853L5.58353 3.83559C5.28066 4.1392 5.11072 4.55064 5.11105 4.97948C5.11139 5.40833 5.28196 5.8195 5.58529 6.12265L7.21 7.74706C7.32031 7.85734 7.4699 7.91929 7.62588 7.91929C7.78186 7.91929 7.93145 7.85734 8.04177 7.74706L9.66647 6.12265C9.96981 5.8195 10.1404 5.40833 10.1407 4.97948C10.141 4.55064 9.9711 4.1392 9.66824 3.83559L9.65059 3.81853C9.38828 3.55686 9.04411 3.39313 8.6756 3.35469C8.30709 3.31626 7.93655 3.40545 7.62588 3.60735C7.31519 3.40537 6.94459 3.31614 6.57601 3.35458C6.20743 3.39301 5.86321 3.55679 5.60088 3.81853ZM6.41735 5.29059C6.33475 5.20809 6.28819 5.09623 6.28786 4.97948C6.28753 4.86274 6.33346 4.75061 6.41559 4.66765L6.43294 4.65029C6.60353 4.47971 6.88353 4.47971 7.05588 4.65206L7.21 4.80588C7.32031 4.91616 7.4699 4.97811 7.62588 4.97811C7.78186 4.97811 7.93145 4.91616 8.04177 4.80588L8.19588 4.65206C8.27838 4.56946 8.39024 4.5229 8.50699 4.52257C8.62373 4.52224 8.73586 4.56816 8.81882 4.65029L8.83647 4.66765C9.00706 4.83824 9.00677 5.11853 8.83441 5.29059L7.62588 6.49941L6.41735 5.29059Z" fill="#8F95B2"/>
</g>
<defs>
<clipPath id="clip0_41_22225">
<rect width="15.2941" height="20" fill="white"/>
</clipPath>
</defs>
</svg>
