<svg width="52" height="52" viewBox="0 0 52 52" fill="none" xmlns="http://www.w3.org/2000/svg">
<rect opacity="0.2" width="52" height="52" rx="26" fill="#DF00FF"/>
<path opacity="0.4" d="M18.8501 33.1504V29.9004M18.8501 29.9004V27.9504C18.8501 27.3376 18.8501 27.0312 19.05 26.8408C19.2499 26.6504 19.5716 26.6504 20.2151 26.6504H21.1251C22.0674 26.6504 22.8313 27.3779 22.8313 28.2754C22.8313 29.1729 22.0674 29.9004 21.1251 29.9004H18.8501ZM37.0501 26.6504H35.3438C34.2714 26.6504 33.7352 26.6504 33.402 26.9677C33.0688 27.285 33.0688 27.7957 33.0688 28.8171V29.9004M33.0688 33.1504V29.9004M33.0688 29.9004H35.9126M30.2251 29.9004C30.2251 31.6953 28.6973 33.1504 26.8126 33.1504C26.3873 33.1504 26.1747 33.1504 26.0163 33.0633C25.6372 32.8548 25.6751 32.4327 25.6751 32.0671V27.7337C25.6751 27.368 25.6372 26.946 26.0163 26.7375C26.1747 26.6504 26.3873 26.6504 26.8126 26.6504C28.6973 26.6504 30.2251 28.1055 30.2251 29.9004Z" stroke="#DF00FF" stroke-width="1.5" stroke-linecap="round" stroke-linejoin="round"/>
<path d="M29.25 38.3496H23.6955C19.4559 38.3496 17.3361 38.3496 15.864 37.3124C15.4422 37.0153 15.0678 36.6628 14.752 36.2659C13.65 34.8803 13.65 32.8852 13.65 28.8951V25.586C13.65 21.7339 13.65 19.8078 14.2596 18.2695C15.2397 15.7965 17.3123 13.8458 19.9399 12.9234C21.5743 12.3496 23.6208 12.3496 27.7136 12.3496C30.0524 12.3496 31.2218 12.3496 32.1558 12.6775C33.6573 13.2046 34.8416 14.3192 35.4016 15.7324C35.75 16.6114 35.75 17.712 35.75 19.9132V22.7496" stroke="#DF00FF" stroke-width="1.5" stroke-linecap="round" stroke-linejoin="round"/>
<path d="M13.6499 25.3496C13.6499 22.9564 15.59 21.0163 17.9832 21.0163C18.8488 21.0163 19.8692 21.1679 20.7107 20.9424C21.4584 20.7421 22.0424 20.1581 22.2427 19.4104C22.4682 18.5689 22.3166 17.5485 22.3166 16.6829C22.3166 14.2897 24.2567 12.3496 26.6499 12.3496" stroke="#DF00FF" stroke-width="1.5" stroke-linecap="round" stroke-linejoin="round"/>
</svg>
