<svg width="40" height="40" viewBox="0 0 40 40" fill="none" xmlns="http://www.w3.org/2000/svg">
<g opacity="0.1">
<circle cx="20" cy="20" r="20" fill="#FE5A1D"/>
</g>
<path opacity="0.4" d="M13.0673 9.41157C13.6339 9.52869 14.0852 9.90943 14.3656 10.4125L15.2588 12.0149C15.5879 12.6051 15.8647 13.1018 16.0455 13.5336C16.2373 13.9916 16.3513 14.4432 16.2992 14.9426C16.2471 15.442 16.0425 15.8604 15.7603 16.269C15.4943 16.6542 15.1209 17.083 14.6772 17.5927L13.3642 19.1009C13.1289 19.3711 13.0112 19.5062 13.0005 19.6751C12.9897 19.844 13.0862 19.9883 13.279 20.2768C14.9226 22.7359 17.1377 24.9518 19.5988 26.5968C19.8874 26.7897 20.0316 26.8861 20.2005 26.8753C20.3694 26.8646 20.5046 26.7469 20.7748 26.5116L22.2831 25.1986C22.7927 24.7549 23.2216 24.3815 23.6068 24.1155C24.0153 23.8333 24.4338 23.6286 24.9331 23.5766C25.4325 23.5245 25.8842 23.6384 26.3422 23.8302C26.7739 24.011 27.2706 24.2879 27.8607 24.6168L27.8609 24.6169L29.4633 25.5101C29.9663 25.7905 30.3471 26.2418 30.4642 26.8085C30.5825 27.3811 30.408 27.9566 30.0224 28.4297C28.6235 30.146 26.3822 31.2389 24.031 30.7646C22.5858 30.473 21.1598 29.9873 19.4351 28.9982C15.9697 27.0108 12.8626 23.902 10.8776 20.4407C9.88843 18.716 9.40272 17.29 9.11118 15.8447C8.63688 13.4935 9.72971 11.2522 11.4461 9.85333C11.9191 9.46779 12.4947 9.29322 13.0673 9.41157Z" fill="#FE5A1D"/>
<path fill-rule="evenodd" clip-rule="evenodd" d="M14.3656 10.4125C14.0852 9.90943 13.6339 9.52869 13.0673 9.41157C12.4947 9.29322 11.9191 9.46779 11.4461 9.85333C9.72971 11.2522 8.63688 13.4935 9.11118 15.8447C9.40272 17.29 9.88843 18.716 10.8776 20.4407C11.8962 22.2169 13.2104 23.9003 14.7168 25.387L16.2004 23.8099C15.1065 22.7247 14.1182 21.5325 13.279 20.2768C13.0862 19.9883 12.9897 19.844 13.0005 19.6751C13.0112 19.5062 13.1289 19.3711 13.3642 19.1009L14.6772 17.5927C15.1209 17.083 15.4943 16.6542 15.7603 16.269C16.0425 15.8604 16.2471 15.442 16.2992 14.9426C16.3513 14.4432 16.2373 13.9916 16.0455 13.5336C15.8647 13.1018 15.5879 12.6051 15.2588 12.0149L14.3656 10.4125Z" fill="#FE5A1D"/>
</svg>
