<svg width="53" height="52" viewBox="0 0 53 52" fill="none" xmlns="http://www.w3.org/2000/svg">
<circle opacity="0.2" cx="26.75" cy="26" r="26" fill="#FAAE7B"/>
<path opacity="0.4" d="M14.4023 25.9984C14.4023 20.1766 14.4023 17.2657 16.211 15.4571C18.0196 13.6484 20.9305 13.6484 26.7523 13.6484C32.5742 13.6484 35.4851 13.6484 37.2937 15.4571C39.1023 17.2657 39.1023 20.1766 39.1023 25.9984C39.1023 31.8203 39.1023 34.7312 37.2937 36.5398C35.4851 38.3484 32.5742 38.3484 26.7523 38.3484C20.9305 38.3484 18.0196 38.3484 16.211 36.5398C14.4023 34.7312 14.4023 31.8203 14.4023 25.9984Z" stroke="#FAAE7B" stroke-width="1.5"/>
<path d="M31.4729 20.036L31.643 19.3056V19.3056L31.4729 20.036ZM22.032 20.036L22.2022 20.7665L22.032 20.036ZM20.7138 20.5389L21.2243 21.0884L21.2243 21.0884L20.7138 20.5389ZM19.5024 22.3869C19.5024 22.8011 19.8382 23.1369 20.2524 23.1369C20.6667 23.1369 21.0024 22.8011 21.0024 22.3869H19.5024ZM20.4432 20.8798L19.7922 20.5074L19.7922 20.5074L20.4432 20.8798ZM32.791 20.5389L33.3015 19.9894L33.3015 19.9894L32.791 20.5389ZM32.5024 22.3869C32.5024 22.8011 32.8382 23.1369 33.2524 23.1369C33.6667 23.1369 34.0024 22.8011 34.0024 22.3869H32.5024ZM33.0617 20.8798L32.4107 21.2523L32.4108 21.2523L33.0617 20.8798ZM26.0024 32.498C26.0024 32.9123 26.3382 33.248 26.7524 33.248C27.1667 33.248 27.5024 32.9123 27.5024 32.498H26.0024ZM28.9191 33.248C29.3333 33.248 29.6691 32.9123 29.6691 32.498C29.6691 32.0838 29.3333 31.748 28.9191 31.748V33.248ZM24.5858 31.748C24.1716 31.748 23.8358 32.0838 23.8358 32.498C23.8358 32.9123 24.1716 33.248 24.5858 33.248V31.748ZM26.7524 20.248C28.3262 20.248 29.8511 20.4284 31.3027 20.7665L31.643 19.3056C30.08 18.9415 28.4409 18.748 26.7524 18.748V20.248ZM22.2022 20.7665C23.6537 20.4284 25.1787 20.248 26.7524 20.248V18.748C25.0639 18.748 23.4248 18.9415 21.8619 19.3056L22.2022 20.7665ZM21.8619 19.3056C21.2389 19.4507 20.6623 19.5631 20.2034 19.9894L21.2243 21.0884C21.3282 20.9919 21.4427 20.9433 22.2022 20.7665L21.8619 19.3056ZM21.0024 22.3869C21.0024 21.981 21.0033 21.7312 21.0225 21.5399C21.0399 21.3666 21.0682 21.2977 21.0941 21.2523L19.7922 20.5074C19.6274 20.7953 19.5603 21.0887 19.53 21.39C19.5016 21.6733 19.5024 22.0104 19.5024 22.3869H21.0024ZM20.2034 19.9894C20.0483 20.1334 19.8973 20.3236 19.7922 20.5074L21.0941 21.2523C21.124 21.2001 21.1802 21.1293 21.2243 21.0884L20.2034 19.9894ZM31.3027 20.7665C32.0621 20.9433 32.1767 20.9919 32.2806 21.0884L33.3015 19.9894C32.8426 19.5631 32.266 19.4507 31.643 19.3056L31.3027 20.7665ZM34.0024 22.3869C34.0024 22.0104 34.0033 21.6733 33.9748 21.39C33.9446 21.0887 33.8774 20.7953 33.7127 20.5074L32.4108 21.2523C32.4367 21.2977 32.4649 21.3666 32.4824 21.5399C32.5016 21.7312 32.5024 21.981 32.5024 22.3869H34.0024ZM32.2806 21.0884C32.3247 21.1293 32.3809 21.2001 32.4107 21.2523L33.7127 20.5074C33.6076 20.3236 33.4566 20.1334 33.3015 19.9894L32.2806 21.0884ZM26.0024 19.498V32.498H27.5024V19.498H26.0024ZM28.9191 31.748H24.5858V33.248H28.9191V31.748Z" fill="#FAAE7B"/>
</svg>
