<svg width="25" height="25" viewBox="0 0 25 25" fill="none" xmlns="http://www.w3.org/2000/svg">
<path fill-rule="evenodd" clip-rule="evenodd" d="M12.3866 14.914L12.4995 14.914L12.7521 14.9149C14.6827 14.9276 19.0946 15.1226 19.0946 18.113C19.0946 21.0837 14.8365 21.2775 12.7822 21.2901L12.0211 21.2901C10.0904 21.2774 5.6776 21.0826 5.6776 18.096C5.6776 15.1215 10.0904 14.9275 12.0211 14.9149L12.2737 14.914C12.3129 14.914 12.3505 14.914 12.3866 14.914ZM12.3866 16.414C10.0106 16.414 7.1776 16.706 7.1776 18.096C7.1776 19.4545 9.84151 19.7722 12.1694 19.7902L12.3866 19.791C14.7626 19.791 17.5946 19.5 17.5946 18.113C17.5946 16.709 14.7626 16.414 12.3866 16.414ZM20.3402 14.5082C22.7632 14.8712 23.2722 16.0092 23.2722 16.9002C23.2722 17.4442 23.0582 18.4372 21.6282 18.9822C21.5402 19.0152 21.4502 19.0312 21.3612 19.0312C21.0592 19.0312 20.7742 18.8472 20.6602 18.5482C20.5122 18.1612 20.7072 17.7272 21.0942 17.5802C21.7722 17.3222 21.7722 17.0372 21.7722 16.9002C21.7722 16.4622 21.2152 16.1562 20.1172 15.9922C19.7082 15.9302 19.4252 15.5492 19.4862 15.1382C19.5472 14.7282 19.9272 14.4552 20.3402 14.5082ZM5.286 15.1382C5.347 15.5492 5.064 15.9302 4.655 15.9922C3.557 16.1562 3 16.4622 3 16.9002C3 17.0372 3 17.3212 3.679 17.5802C4.066 17.7272 4.261 18.1612 4.113 18.5482C3.999 18.8472 3.714 19.0312 3.412 19.0312C3.323 19.0312 3.233 19.0152 3.145 18.9822C1.714 18.4362 1.5 17.4432 1.5 16.9002C1.5 16.0102 2.009 14.8712 4.433 14.5082C4.846 14.4562 5.224 14.7282 5.286 15.1382ZM12.3866 4.5C14.9066 4.5 16.9556 6.55 16.9556 9.069C16.9556 11.588 14.9066 13.638 12.3866 13.638H12.3596C11.1396 13.634 9.9966 13.156 9.1406 12.292C8.2826 11.429 7.8136 10.283 7.81856 9.066C7.81856 6.55 9.8676 4.5 12.3866 4.5ZM12.3866 6C10.6946 6 9.31858 7.377 9.31858 9.069C9.3156 9.889 9.6296 10.656 10.2046 11.235C10.7796 11.814 11.5456 12.135 12.3616 12.138L12.3866 12.888V12.138C14.0786 12.138 15.4556 10.762 15.4556 9.069C15.4556 7.377 14.0786 6 12.3866 6ZM18.5756 5.4795C20.3336 5.7685 21.6106 7.2725 21.6106 9.0555C21.6066 10.8505 20.2656 12.3905 18.4906 12.6395C18.4556 12.6445 18.4206 12.6465 18.3866 12.6465C18.0186 12.6465 17.6976 12.3755 17.6446 12.0005C17.5876 11.5895 17.8726 11.2105 18.2836 11.1535C19.3236 11.0075 20.1086 10.1055 20.1106 9.0535C20.1106 8.0105 19.3626 7.1285 18.3316 6.9595C17.9236 6.8925 17.6466 6.5065 17.7136 6.0975C17.7816 5.6885 18.1646 5.4145 18.5756 5.4795ZM7.0596 6.0975C7.1266 6.5065 6.8496 6.8925 6.4416 6.9595C5.4106 7.1285 4.6626 8.0105 4.6626 9.0555C4.6646 10.1055 5.4496 11.0085 6.4886 11.1535C6.8996 11.2105 7.1846 11.5895 7.1276 12.0005C7.0746 12.3755 6.7536 12.6465 6.3856 12.6465C6.3516 12.6465 6.3166 12.6445 6.2816 12.6395C4.5066 12.3905 3.1666 10.8505 3.1626 9.0575C3.1626 7.2725 4.4396 5.7685 6.1976 5.4795C6.6186 5.4135 6.9916 5.6905 7.0596 6.0975Z" fill="#8F95B2"/>
</svg>
