<svg width="53" height="52" viewBox="0 0 53 52" fill="none" xmlns="http://www.w3.org/2000/svg">
<circle opacity="0.2" cx="26.2656" cy="26" r="26" fill="#4CDBC4"/>
<path opacity="0.4" d="M24.9641 20.7969L27.5641 20.7969" stroke="#4CDBC4" stroke-width="1.5" stroke-linecap="round"/>
<path d="M13.2642 24.6977C13.2642 20.4079 13.2642 18.263 14.5968 16.9303C15.9295 15.5977 18.0744 15.5977 22.3642 15.5977H23.6642C27.9539 15.5977 30.0988 15.5977 31.4315 16.9303C32.7642 18.263 32.7642 20.4079 32.7642 24.6977V27.2977C32.7642 31.5874 32.7642 33.7323 31.4315 35.065C30.0988 36.3977 27.9539 36.3977 23.6642 36.3977H22.3642C18.0744 36.3977 15.9295 36.3977 14.5968 35.065C13.2642 33.7323 13.2642 31.5874 13.2642 27.2977V24.6977Z" stroke="#4CDBC4" stroke-width="1.5"/>
<path opacity="0.4" d="M32.7642 21.9753L32.9278 21.8402C35.6783 19.5708 37.0536 18.436 38.1589 18.9839C39.2642 19.5318 39.2642 21.3483 39.2642 24.9812V27.0141C39.2642 30.647 39.2642 32.4635 38.1589 33.0114C37.0536 33.5593 35.6783 32.4246 32.9278 30.1551L32.7642 30.02" stroke="#4CDBC4" stroke-width="1.5" stroke-linecap="round"/>
</svg>
