<svg width="20" height="21" viewBox="0 0 20 21" fill="none" xmlns="http://www.w3.org/2000/svg">
<path d="M17.9536 9.98999C18.207 10.3465 18.3337 10.5247 18.3337 10.7885C18.3337 11.0524 18.207 11.2306 17.9536 11.587C16.8152 13.1887 13.908 16.6415 10.0003 16.6415C6.09264 16.6415 3.18541 13.1887 2.04703 11.587C1.79367 11.2306 1.66699 11.0524 1.66699 10.7885C1.66699 10.5247 1.79367 10.3465 2.04703 9.99C3.18541 8.38833 6.09264 4.93555 10.0003 4.93555C13.908 4.93555 16.8152 8.38833 17.9536 9.98999Z" stroke="#0D8BA7" stroke-width="1.5"/>
<path opacity="0.4" d="M12.5 10.7885C12.5 9.4031 11.3807 8.28004 10 8.28004C8.61929 8.28004 7.5 9.4031 7.5 10.7885C7.5 12.1738 8.61929 13.2969 10 13.2969C11.3807 13.2969 12.5 12.1738 12.5 10.7885Z" stroke="#0D8BA7" stroke-width="1.5"/>
</svg>
